<?xml version="1.0" encoding="utf-8"?>
<!-- Generator: Adobe Illustrator 25.2.3, SVG Export Plug-In . SVG Version: 6.00 Build 0)  -->
<svg version="1.1" id="Capa_1" xmlns="http://www.w3.org/2000/svg" xmlns:xlink="http://www.w3.org/1999/xlink" x="0px" y="0px"
	 viewBox="0 0 40 40" style="enable-background:new 0 0 40 40;" xml:space="preserve">
<style type="text/css">
	.st0{fill:#9F9F9F;}
</style>
<g>
	<path class="st0" d="M20.2,0c0.3,0.2,0.4,0.5,0.4,0.9c0,1.1,0,2.3,0,3.4c0,0.1,0,0.3,0,0.4C20.5,5,20.3,5.2,20,5.1
		c-0.2,0-0.4-0.2-0.5-0.4c-0.1-0.1,0-0.3,0-0.4c0-1.1,0-2.3,0-3.4c0-0.4,0.1-0.7,0.4-0.9C19.9,0,20.1,0,20.2,0z"/>
	<path class="st0" d="M25.2,29.4c0.2-1.4,1-2.5,2-3.4c1.6-1.7,2.7-3.6,3.1-5.9c1-6.1-3.2-11.6-9-12.3c-4.3-0.5-8.6,1.8-10.5,5.7
		c0,0.1-0.1,0.1-0.1,0.2c-0.2,0.4-0.5,0.5-0.8,0.3c-0.3-0.2-0.4-0.5-0.2-0.9c0.5-1.1,1.2-2.1,2-2.9c3.2-3.3,7.1-4.5,11.5-3.3
		c4.5,1.2,7.3,4.3,8.3,8.8c0.9,4.1-0.2,7.7-3,10.8c-0.4,0.5-0.9,1-1.2,1.5c-0.5,0.7-0.7,1.4-0.7,2.3c0,1.1,0,2.3,0,3.4
		c0,1.1-0.4,2-1.3,2.6c-0.3,0.2-0.2,0.5-0.2,0.7c0,1.4-0.8,2.5-2.1,2.9C22.5,40,22.2,40,21.9,40c-1.2,0-2.3,0-3.5,0
		c-1.7,0-3-1.3-3-3c0-0.4-0.1-0.6-0.4-0.9c-0.7-0.6-1.1-1.4-1.1-2.3c0-1.1-0.1-2.2,0-3.3c0-1-0.3-1.9-1-2.7c-0.6-0.7-1.2-1.3-1.8-2
		C8.8,23,8,19.7,8.6,16.1c0.1-0.4,0.4-0.6,0.7-0.5c0.3,0.1,0.5,0.4,0.4,0.8c-0.3,1.5-0.2,3,0.1,4.5c0.5,1.9,1.4,3.5,2.8,5
		c0.6,0.6,1.1,1.3,1.6,2c0.3,0.5,0.5,1.1,0.8,1.7C18.4,29.4,21.8,29.4,25.2,29.4z M15.1,32.6c0.2,0,0.3,0,0.5,0c1.7,0,3.4,0,5.1,0
		c0.1,0,0.3,0,0.4,0c0.3,0,0.5,0.2,0.5,0.5c0,0.3-0.1,0.5-0.5,0.6c-0.1,0-0.3,0-0.4,0c-1.7,0-3.5,0-5.2,0c-0.1,0-0.3,0-0.4,0
		c0,1,0.8,1.9,1.8,1.9c2.2,0,4.3,0,6.5,0c1.1,0,1.9-1,1.8-1.9c0,0,0,0,0,0c-0.4,0-0.8,0-1.2,0c-0.5,0-0.7-0.2-0.7-0.6
		c0-0.4,0.2-0.6,0.7-0.6c0.4,0,0.8,0,1.2,0c0-0.7,0-1.3,0-1.9c-3.4,0-6.7,0-10,0C15.1,31.3,15.1,31.9,15.1,32.6z M23.7,36.9
		c-2.4,0-4.7,0-7.1,0c-0.1,1.1,0.7,1.9,1.7,1.9c1.2,0,2.4,0,3.7,0C23,38.8,23.7,38,23.7,36.9z"/>
	<path class="st0" d="M19.1,20.1c1-1.3,2-2.6,3-3.8c0.3-0.4,0.6-0.7,0.8-1.1c0.7-0.8,1.8-1,2.6-0.3c0.8,0.6,1,1.8,0.3,2.6
		c-0.4,0.5-0.7,1-1.1,1.4c-0.3,0.3-0.6,0.4-0.9,0.2c-0.3-0.2-0.3-0.6,0-0.9c0.3-0.4,0.7-0.9,1-1.3c0.3-0.4,0.3-0.8-0.1-1
		c-0.3-0.3-0.7-0.2-1.1,0.2c-1.3,1.7-2.7,3.4-4,5.2c-0.5,0.6-0.8,0.6-1.3,0.1c-0.8-0.9-1.6-1.8-2.4-2.6c-0.2-0.2-0.5-0.3-0.7-0.3
		c-0.6,0-0.8,0.7-0.4,1.2c0.5,0.6,1.1,1.2,1.6,1.8c0.6,0.7,1.3,1.4,1.9,2.1c0.4,0.5,0.9,0.4,1.2-0.1c0.7-0.9,1.4-1.8,2.1-2.7
		c0.1-0.1,0.2-0.3,0.3-0.3c0.2,0,0.5,0,0.7,0.2c0.2,0.2,0.2,0.5,0,0.7c-0.8,1-1.6,2.1-2.4,3.1c-0.7,0.8-2,0.8-2.7,0.1
		c-1.3-1.4-2.6-2.8-3.9-4.3c-0.7-0.8-0.5-1.9,0.2-2.6c0.8-0.7,1.9-0.6,2.6,0.1c0.6,0.6,1.2,1.3,1.8,1.9C18.8,19.8,19,19.9,19.1,20.1
		z"/>
	<path class="st0" d="M3.1,20c-0.6,0-1.2,0-1.9,0c-0.5,0-0.7-0.2-0.7-0.6c0-0.4,0.3-0.6,0.7-0.6c1.2,0,2.5,0,3.7,0
		c0.4,0,0.7,0.2,0.7,0.6C5.7,19.8,5.4,20,5,20C4.4,20,3.7,20,3.1,20z"/>
	<path class="st0" d="M36.9,20c-0.6,0-1.2,0-1.8,0c-0.5,0-0.7-0.2-0.7-0.6c0-0.4,0.3-0.6,0.7-0.6c1.2,0,2.5,0,3.7,0
		c0.4,0,0.7,0.2,0.7,0.6c0,0.4-0.3,0.6-0.7,0.6C38.1,20,37.5,20,36.9,20z"/>
	<path class="st0" d="M6.6,33.5c-0.2-0.2-0.4-0.3-0.5-0.4c0-0.2,0-0.5,0.1-0.7c0.4-0.5,0.9-0.9,1.3-1.3c0.5-0.5,0.9-0.9,1.4-1.4
		c0.3-0.3,0.7-0.3,0.9-0.1c0.3,0.3,0.2,0.6-0.1,0.9c-0.9,0.9-1.7,1.8-2.6,2.6C7,33.3,6.8,33.3,6.6,33.5z"/>
	<path class="st0" d="M6.6,5.4C6.8,5.6,7,5.6,7.1,5.8C8,6.6,8.9,7.5,9.8,8.4c0.3,0.3,0.3,0.6,0.1,0.9C9.6,9.6,9.3,9.5,8.9,9.2
		C8.1,8.3,7.2,7.4,6.3,6.6C6.1,6.3,6,6.1,6.1,5.8C6.2,5.7,6.4,5.6,6.6,5.4z"/>
	<path class="st0" d="M34,6.1c-0.1,0.2-0.2,0.4-0.3,0.5c-0.9,0.9-1.8,1.8-2.7,2.7c-0.3,0.3-0.6,0.3-0.9,0c-0.2-0.2-0.2-0.6,0.1-0.9
		c0.9-0.9,1.8-1.8,2.7-2.7c0.2-0.2,0.5-0.3,0.7-0.1C33.8,5.7,33.9,5.9,34,6.1z"/>
	<path class="st0" d="M33.4,33.5c-0.2-0.1-0.4-0.2-0.5-0.3c-0.9-0.9-1.8-1.8-2.7-2.7c-0.3-0.3-0.3-0.6-0.1-0.9
		c0.2-0.2,0.6-0.2,0.9,0c0.9,0.9,1.8,1.8,2.7,2.7c0.1,0.1,0.2,0.5,0.1,0.7C33.8,33.2,33.6,33.3,33.4,33.5z"/>
</g>
</svg>
