<?xml version="1.0" encoding="utf-8"?>
<!-- Generator: Adobe Illustrator 25.2.3, SVG Export Plug-In . SVG Version: 6.00 Build 0)  -->
<svg version="1.1" id="Capa_1" xmlns="http://www.w3.org/2000/svg" xmlns:xlink="http://www.w3.org/1999/xlink" x="0px" y="0px"
	 viewBox="0 0 44 44" style="enable-background:new 0 0 44 44;" xml:space="preserve">
<style type="text/css">
	.st0{fill:#FFFFFF;}
</style>
<g>
	<path class="st0" d="M43.8,20.7c0,0.9,0,1.7,0,2.6c0,0.1-0.1,0.2-0.1,0.4c-0.2,3-1,5.9-2.5,8.6c-3.4,6.1-8.5,9.9-15.5,11.2
		c-0.8,0.2-1.7,0.2-2.5,0.3c-0.9,0-1.7,0-2.6,0c-0.1,0-0.2-0.1-0.3-0.1c-3-0.2-5.9-1-8.6-2.5c-7.2-4-11.1-10.2-11.6-18.4
		C0,19,0.8,15.2,2.8,11.8c4-7.2,10.1-11,18.3-11.5C25,0,28.8,0.8,32.2,2.7c6.2,3.4,9.9,8.6,11.2,15.5C43.6,19,43.7,19.9,43.8,20.7z
		 M22,40.4c10.2,0,18.4-8.2,18.4-18.4c0-10.2-8.3-18.4-18.4-18.4C11.8,3.6,3.6,11.8,3.6,22C3.6,32.2,11.8,40.4,22,40.4z"/>
	<path class="st0" d="M19.1,25.4c0.1-0.2,0.2-0.3,0.3-0.5c3.2-3.2,6.4-6.4,9.7-9.7c0.4-0.4,0.8-0.7,1.4-0.7c0.7,0,1.2,0.3,1.5,0.9
		c0.3,0.6,0.3,1.2-0.1,1.8c-0.1,0.2-0.3,0.3-0.4,0.4c-3.7,3.7-7.3,7.3-11,11c-1,1-1.9,1-2.8,0c-1.7-1.7-3.4-3.4-5.1-5.1
		c-0.8-0.8-0.8-1.8-0.1-2.5c0.7-0.6,1.6-0.7,2.3,0c0.6,0.6,1.2,1.2,1.8,1.7C17.3,23.6,18.1,24.4,19.1,25.4z"/>
</g>
</svg>
