<?xml version="1.0" encoding="utf-8"?>
<!-- Generator: Adobe Illustrator 25.2.3, SVG Export Plug-In . SVG Version: 6.00 Build 0)  -->
<svg version="1.1" id="Capa_1" xmlns="http://www.w3.org/2000/svg" xmlns:xlink="http://www.w3.org/1999/xlink" x="0px" y="0px"
	 viewBox="0 0 44 44" style="enable-background:new 0 0 44 44;" xml:space="preserve">
<style type="text/css">
	.st0{fill:#FFFFFF;}
</style>
<g>
	<path class="st0" d="M44,29.4c-0.1,0.5-0.2,0.9-0.3,1.4c-0.5,1.8-1.6,3.2-3.1,4.3c-0.3,0.2-0.4,0.3-0.4,0.7c0,1.4,0,2.8,0,4.1
		c0,0.6-0.2,1-0.7,1.3c-0.6,0.2-1,0-1.4-0.4c-1.3-1.3-2.7-2.7-4-4c-0.3-0.3-0.5-0.4-0.9-0.4c-4.8,0-9.6,0-14.4,0
		c-1.9,0-3.6-0.5-5.1-1.7c-0.1-0.1-0.3-0.2-0.4-0.3C13,34,13,33.7,13.2,33.4c0.2-0.3,0.6-0.3,0.9-0.1c0.3,0.2,0.6,0.5,1,0.7
		c1.1,0.7,2.2,1,3.5,1c4.9,0,9.7,0,14.6,0c0.7,0,1.2,0.2,1.7,0.7c1.2,1.2,2.4,2.4,3.6,3.6c0.1,0.1,0.2,0.2,0.4,0.3
		c0-0.2,0-0.3,0-0.4c0-1.2,0-2.4,0-3.6c0-0.7,0.3-1.2,0.9-1.6c1.9-1.2,2.9-3,2.9-5.3c0-2.4,0-4.8,0-7.2c-0.1-3.5-2.9-6.3-6.4-6.3
		c-5.9,0-11.8,0-17.8,0c-3.5,0-6.3,2.8-6.4,6.3c0,2.4,0,4.8,0,7.1c0,0.8,0.3,1.6,0.5,2.4c0.1,0.5,0,0.8-0.4,0.9
		c-0.3,0.1-0.6-0.1-0.8-0.4c-0.4-1-0.6-2-0.6-3.1c0-1.1,0-2.1,0-3.2c-0.6,0-1.1-0.1-1.6,0.4c-1,1.1-2.1,2.2-3.2,3.3
		c-0.7,0.7-1.8,0.5-2.1-0.4c0-0.2,0-0.3,0-0.5c0-1.1,0-2.2,0-3.4c0-0.3-0.1-0.4-0.3-0.6c-2.3-1.6-3.5-3.8-3.5-6.6c0-2.3,0-4.5,0-6.8
		c0-4.4,3.4-7.8,7.8-7.8c5.9,0,11.7,0,17.6,0c1,0,1.9,0.2,2.8,0.5c0.5,0.2,0.6,0.5,0.5,0.9c-0.1,0.3-0.5,0.4-0.9,0.3
		c-0.7-0.2-1.5-0.4-2.3-0.4c-5.9,0-11.9,0-17.8,0c-2.9,0-5.4,2-6.1,4.8C1.4,9.5,1.4,10,1.4,10.6c0,2.3,0,4.6,0,6.8
		c0,2.4,1,4.3,3,5.6c0.6,0.4,0.9,0.9,0.8,1.5c0,0.9,0,1.9,0,2.8c0,0.1,0,0.3,0,0.5c0.2-0.2,0.3-0.2,0.4-0.3c0.9-0.9,1.9-1.9,2.8-2.8
		c0.5-0.5,1.1-0.8,1.8-0.7c0.2,0,0.3,0,0.6,0c0-0.3,0-0.5,0-0.7c0-1.2-0.1-2.5,0.3-3.7c0.9-3.2,3.9-5.5,7.2-5.6c4.3,0,8.6,0,12.9,0
		c0.2,0,0.3,0,0.5,0c0-0.2,0-0.3,0-0.5c0-0.9,0-1.8,0-2.7c0-1.7-0.5-3.2-1.6-4.5C29.9,6,29.8,5.6,30,5.4c0.2-0.2,0.5-0.3,0.7-0.3
		c0.2,0,0.3,0.2,0.5,0.3c1.3,1.5,1.9,3.2,1.9,5.2c0,0.9,0,1.9,0,2.8c0,0.2,0,0.3,0,0.5c1.1,0,2.1,0,3,0c1.1,0,2.1,0.2,3.1,0.6
		c2.6,1.2,4.1,3.2,4.6,6c0,0.1,0.1,0.2,0.1,0.3C44,23.7,44,26.5,44,29.4z"/>
	<path class="st0" d="M25.6,29.6c0.3-0.4,0.6-0.7,1-1c-0.1-0.1-0.2-0.2-0.3-0.2c-0.6-0.4-1-1-1-1.7c0-0.9,0-1.7,0-2.6
		c0-0.9,0.6-1.5,1.4-1.9c-0.3-2.1-2.3-3.7-4.4-3.8c-2.3-0.1-4.2,1.5-4.7,3.7c0,0,0.1,0.1,0.2,0.1c0.8,0.4,1.2,1.1,1.2,2
		c0,0.7,0,1.5,0,2.2c0,1.3-0.9,2.2-2.2,2.2c-1.2,0-2.1-1-2.1-2.3c0-0.7,0-1.4,0-2.1c0-1,0.5-1.7,1.3-2.1c0.2-0.1,0.3-0.3,0.3-0.5
		c0.6-2.4,2.4-4.1,4.8-4.5c3.1-0.5,6,1.4,6.8,4.4c0.1,0.3,0.2,0.5,0.5,0.7c0.8,0.4,1.1,1,1.2,1.9c0,0.8,0,1.6,0,2.4
		c0,1-0.5,1.6-1.4,2c-0.1,0.1-0.3,0.2-0.4,0.4c-0.4,0.8-0.9,1.4-1.7,1.9c-0.1,0.1-0.3,0.2-0.3,0.4c-0.4,0.8-1,1.2-1.8,1.2
		c-0.9,0.1-1.6-0.2-2.1-0.9c-0.5-0.7-0.4-1.6,0.3-2.2c0.9-0.8,2.3-0.8,3.2,0C25.3,29.4,25.4,29.5,25.6,29.6z M26.5,25.4
		c0,0.4,0,0.8,0,1.2c0,0.5,0.4,0.9,0.8,0.9c0.4,0,0.8-0.3,0.8-0.8c0-0.8,0-1.6,0-2.4c0-0.5-0.4-0.8-0.8-0.8c-0.5,0-0.8,0.3-0.8,0.8
		C26.5,24.6,26.5,25,26.5,25.4z M15.9,25.4C15.9,25.4,15.9,25.4,15.9,25.4c0,0.4,0,0.8,0,1.2c0,0.5,0.4,0.8,0.8,0.8
		c0.4,0,0.8-0.3,0.8-0.8c0-0.8,0-1.6,0-2.4c0-0.5-0.3-0.8-0.8-0.8c-0.5,0-0.8,0.3-0.8,0.8C15.9,24.6,15.9,25,15.9,25.4z M23.7,30
		c-0.5,0-0.9,0.2-0.9,0.6c0,0.3,0.4,0.6,0.9,0.6c0.5,0,0.8-0.3,0.8-0.6C24.5,30.2,24.1,30,23.7,30z"/>
	<path class="st0" d="M33.8,20.8c-0.8,0-1.6,0-2.4,0c-0.5,0-0.8-0.3-0.8-0.7c0-0.4,0.3-0.6,0.8-0.6c1.6,0,3.3,0,4.9,0
		c0.5,0,0.8,0.2,0.8,0.7c0,0.4-0.3,0.7-0.8,0.7C35.5,20.8,34.7,20.8,33.8,20.8z"/>
	<path class="st0" d="M33.3,23.7c-0.6,0-1.3,0-1.9,0c-0.5,0-0.7-0.3-0.8-0.6c0-0.4,0.3-0.7,0.8-0.7c1.3,0,2.5,0,3.8,0
		c0.5,0,0.7,0.2,0.7,0.6c0,0.4-0.3,0.7-0.8,0.7C34.5,23.7,33.9,23.7,33.3,23.7z"/>
	<path class="st0" d="M10.4,11.4c0,0.5-0.4,1-1,1c-0.5,0-0.9-0.4-1-1c0-0.5,0.4-1,1-1C10,10.5,10.4,10.9,10.4,11.4z"/>
	<path class="st0" d="M6.5,10.5c0.5,0,1,0.5,1,1c0,0.5-0.5,1-1,0.9c-0.5,0-0.9-0.4-0.9-1C5.5,10.9,6,10.4,6.5,10.5z"/>
	<path class="st0" d="M12.4,10.5c0.6,0,1,0.4,1,1c0,0.6-0.4,1-1,1c-0.5,0-0.9-0.4-1-0.9C11.4,10.9,11.8,10.5,12.4,10.5z"/>
</g>
</svg>
