<?xml version="1.0" encoding="utf-8"?>
<!-- Generator: Adobe Illustrator 25.2.3, SVG Export Plug-In . SVG Version: 6.00 Build 0)  -->
<svg version="1.1" id="Capa_1" xmlns="http://www.w3.org/2000/svg" xmlns:xlink="http://www.w3.org/1999/xlink" x="0px" y="0px"
	 viewBox="0 0 44 44" style="enable-background:new 0 0 44 44;" xml:space="preserve">
<style type="text/css">
	.st0{fill:#FFFFFF;}
</style>
<g>
	<path class="st0" d="M17.3,21.2c-0.7-1.1-0.6-1.7,0.2-2.7c0.1-0.1,0.1-0.3,0-0.4c-0.3-0.4-0.5-0.9-0.8-1.3
		c-1.3-1.7-2.4-3.5-2.8-5.6C13,6.5,15.4,2.3,19.8,0.7c4.6-1.7,9.9,0.4,11.9,4.8c1.2,2.6,1,5.2-0.1,7.7c-0.5,1.3-1.3,2.4-2.2,3.5
		c-0.3,0.4-0.6,0.9-0.8,1.3c-0.1,0.1-0.1,0.3,0,0.4c0.8,0.9,0.8,1.8,0.1,2.7c0.4,0.5,0.6,1.1,0.4,1.8c-0.2,0.8-0.7,1.3-1.5,1.4
		c-0.2,0-0.4,0.1-0.4,0.4c-0.6,1.8-2.3,3-4.2,3c-1.9,0-3.6-1.2-4.2-3c0-0.1-0.2-0.3-0.3-0.3c-1.5-0.4-2.1-1.8-1.3-3.1
		C17.3,21.2,17.3,21.2,17.3,21.2z M23.1,10.7c0.1-0.1,0.2-0.2,0.3-0.3c0.9-0.9,1.7-1.7,2.6-2.6c0.3-0.3,0.5-0.4,0.9-0.2
		c0.3,0.2,0.4,0.5,0.3,0.9c-0.5,2.1-1,4.3-1.5,6.4c-0.2,1-0.5,2-0.7,3.1c0.7,0,1.4,0,2.1,0c0.3,0,0.4-0.1,0.5-0.3
		c0.3-0.6,0.7-1.1,1-1.7c0.6-0.9,1.3-1.8,1.8-2.8c1-2,1.3-4.2,0.6-6.4C29.4,2.4,24.3,0.2,19.9,2c-2.9,1.2-5.5,4.2-4.8,8.4
		c0.3,2,1.2,3.7,2.4,5.3c0.5,0.6,0.8,1.3,1.3,2c0.1,0.1,0.2,0.2,0.3,0.2c0.7,0,1.5,0,2.2,0c0-0.2,0-0.3-0.1-0.4
		c-0.7-2.9-1.4-5.8-2.1-8.8c-0.1-0.4-0.3-0.8,0.2-1.1c0.5-0.3,0.8,0.1,1.1,0.4C21.3,8.9,22.2,9.8,23.1,10.7z M22.6,18
		c0.1,0,0.2,0,0.3,0c0.6,0,0.6,0,0.8-0.6c0.4-1.7,0.8-3.4,1.2-5.2c0.1-0.6,0.3-1.1,0.4-1.7c-0.6,0.5-1.2,1-1.7,1.6
		c-0.4,0.4-0.7,0.4-1.1,0c-0.2-0.2-0.4-0.4-0.6-0.6c-0.3-0.3-0.7-0.7-1-1c0,0-0.1,0-0.1,0.1C21.4,12.9,22,15.4,22.6,18z M23.1,19.2
		c-1.4,0-2.7,0-4.1,0c-0.5,0-0.8,0.2-0.8,0.6c0,0.4,0.3,0.6,0.8,0.6c2.7,0,5.4,0,8.1,0c0.6,0,0.9-0.2,0.9-0.7c0-0.4-0.3-0.6-0.8-0.6
		C25.8,19.2,24.5,19.2,23.1,19.2z M23.1,21.8c-1.4,0-2.7,0-4.1,0c-0.5,0-0.8,0.2-0.8,0.6c0,0.4,0.3,0.7,0.8,0.7c2.7,0,5.5,0,8.2,0
		c0.5,0,0.8-0.2,0.8-0.7c0-0.4-0.3-0.6-0.8-0.6C25.8,21.8,24.5,21.8,23.1,21.8z M20.2,24.4c0.2,1.1,1.6,2.1,2.9,2c1.3,0,2.7-1,2.8-2
		C24,24.4,22.1,24.4,20.2,24.4z"/>
	<path class="st0" d="M11.2,41.9c0,1-0.3,1.3-1.2,1.5c-0.5,0.1-1,0.3-1.5,0.4c-1,0.3-1.5,0-1.8-1c-0.9-3.3-1.8-6.7-2.7-10
		c-0.3-1.1-0.6-2.2-0.9-3.4c-0.3-0.9,0.1-1.5,1-1.7c0.5-0.1,1-0.3,1.5-0.4c1.1-0.3,1.5-0.1,1.9,1c0.6-0.2,1.3-0.3,1.9-0.5
		c1.1-0.4,2.1-0.8,3.2-1.1c1.2-0.4,2.3-0.3,3.4,0.4c1.1,0.7,2.2,1.3,3.3,1.9c1,0.6,2.1,0.8,3.3,0.4c0.8-0.2,1.5-0.4,2.3-0.6
		c2.5-0.8,4.7,0.9,4.7,3.3c0.2-0.1,0.3-0.2,0.4-0.2c2.1-1.2,4.3-2.5,6.4-3.7c1.8-1,3.9-0.1,4.5,1.8c0.3,1.3-0.2,2.7-1.5,3.4
		c-3,1.7-5.9,3.4-8.9,5.1c-2.1,1.2-4.2,2.4-6.4,3.7c-1.3,0.8-2.7,1-4.2,0.6c-1.6-0.4-3.2-0.9-4.8-1.2C13.8,41.4,12.5,41.6,11.2,41.9
		z M10.8,40.6c0.2,0,0.3,0,0.4-0.1c1.6-0.3,3.2-0.4,4.9-0.1c1.5,0.3,2.9,0.7,4.4,1.1c1,0.3,2,0.2,2.9-0.4c5.1-3,10.3-5.9,15.4-8.9
		c0.2-0.1,0.4-0.3,0.5-0.4c0.5-0.6,0.6-1.5,0.1-2.2c-0.5-0.7-1.4-0.9-2.2-0.4c-2.7,1.5-5.4,3.1-8,4.6c-0.1,0.1-0.2,0.2-0.3,0.3
		c-0.5,0.5-1.1,0.9-1.8,1.1c-1.4,0.4-2.7,0.7-4.1,1.1c-0.9,0.2-1.7,0.3-2.6,0c-0.4-0.1-0.7-0.4-0.6-0.8c0.1-0.4,0.4-0.5,0.8-0.4
		c0.6,0,1.2,0.1,1.7,0c1.5-0.3,3.1-0.8,4.6-1.2c1.1-0.3,1.6-1.5,1.3-2.6c-0.3-1.1-1.4-1.7-2.5-1.5c-0.9,0.2-1.8,0.5-2.7,0.7
		c-1.5,0.4-3,0.2-4.3-0.6c-1.2-0.7-2.3-1.3-3.5-2c-0.5-0.3-1.1-0.4-1.7-0.3c-1,0.3-2,0.7-3,1c-0.9,0.3-1.7,0.5-2.6,0.8
		C8.8,33.3,9.8,36.9,10.8,40.6z M9.8,42.1C8.6,37.5,7.4,33,6.2,28.5C5.5,28.6,5,28.8,4.3,29c1.2,4.6,2.4,9.1,3.7,13.6
		C8.6,42.4,9.2,42.3,9.8,42.1z"/>
	<path class="st0" d="M9.4,10.1c-0.4,0-0.9,0-1.3,0c-0.4,0-0.7-0.3-0.7-0.6c0-0.3,0.3-0.6,0.7-0.7c0.9,0,1.7,0,2.6,0
		c0.4,0,0.7,0.3,0.7,0.7c0,0.4-0.3,0.6-0.7,0.6C10.2,10.2,9.8,10.1,9.4,10.1z"/>
	<path class="st0" d="M13,3.2c0,0.6-0.5,0.9-0.9,0.7C11.3,3.4,10.5,3,9.7,2.5C9.4,2.3,9.3,2,9.5,1.7c0.2-0.3,0.5-0.4,0.8-0.3
		c0.8,0.4,1.7,0.9,2.5,1.4C12.9,2.9,12.9,3.1,13,3.2z"/>
	<path class="st0" d="M36.8,2.1c-0.1,0.1-0.2,0.3-0.3,0.4C35.7,3,35,3.4,34.3,3.8c-0.4,0.2-0.7,0.1-0.9-0.2
		c-0.2-0.3-0.1-0.7,0.3-0.9c0.7-0.4,1.5-0.9,2.2-1.3C36.3,1.2,36.8,1.5,36.8,2.1z"/>
	<path class="st0" d="M36.9,10.1c-0.4,0-0.9,0-1.3,0c-0.4,0-0.7-0.3-0.7-0.6c0-0.4,0.3-0.6,0.7-0.7c0.9,0,1.7,0,2.6,0
		c0.4,0,0.7,0.3,0.6,0.7c0,0.4-0.3,0.6-0.7,0.6C37.7,10.2,37.3,10.1,36.9,10.1z"/>
	<path class="st0" d="M13,15.9c-0.1,0.1-0.1,0.3-0.3,0.4c-0.7,0.5-1.5,0.9-2.3,1.3c-0.4,0.2-0.7,0.1-0.9-0.2
		c-0.2-0.3-0.1-0.7,0.2-0.9c0.7-0.4,1.5-0.9,2.3-1.3C12.5,14.9,13,15.2,13,15.9z"/>
	<path class="st0" d="M33.2,15.8c0-0.6,0.5-0.9,0.9-0.7c0.8,0.4,1.6,0.9,2.4,1.4c0.3,0.2,0.4,0.5,0.2,0.8c-0.2,0.3-0.5,0.4-0.8,0.3
		c-0.8-0.4-1.6-0.9-2.4-1.4C33.4,16.1,33.3,15.9,33.2,15.8z"/>
</g>
</svg>
