<?xml version="1.0" encoding="utf-8"?>
<!-- Generator: Adobe Illustrator 25.2.3, SVG Export Plug-In . SVG Version: 6.00 Build 0)  -->
<svg version="1.0" id="Capa_1" xmlns="http://www.w3.org/2000/svg" xmlns:xlink="http://www.w3.org/1999/xlink" x="0px" y="0px"
	 viewBox="0 0 160 50" style="enable-background:new 0 0 160 50;" xml:space="preserve">
<style type="text/css">
	.st0{fill:#FFFFFF;}
</style>
<g>
	<path class="st0" d="M151.8,27.7c0.1,0,0.2,0,0.3,0c0.9,0,1.9,0,2.8,0c0.3,0,0.4,0.1,0.3,0.4c-0.2,0.9-0.5,1.8-1,2.6
		c-0.5,0.8-1.2,1.4-1.9,2c-0.6,0.4-1.2,0.7-1.9,0.8c-0.3,0-0.5,0-0.8,0c-2.3,0-4.5,0-6.8,0c-0.8,0-1.6,0-2.4,0
		c-1.3,0-2.4-0.4-3.4-1.3c-0.6-0.5-1.1-1.2-1.5-1.8c-0.3-0.4-0.4-0.8-0.6-1.3c-0.2-0.7-0.3-1.4-0.3-2.2c0-1.3,0-2.5,0-3.8
		c0-0.9,0.2-1.8,0.5-2.7c0.3-0.8,0.8-1.5,1.5-2.1c0.3-0.3,0.6-0.5,0.9-0.7c0.7-0.6,1.6-0.9,2.5-1c0.2,0,0.4,0,0.7,0c3,0,5.9,0,8.9,0
		c0.8,0,1.5,0.2,2.3,0.5c0.7,0.3,1.2,0.8,1.7,1.3c0.4,0.5,0.8,1,1.1,1.5c0.4,0.6,0.6,1.3,0.7,1.9c0,0.2,0.1,0.5,0.1,0.7
		c0,1,0,1.9,0,2.9c0,0.1,0,0.2,0,0.3c-0.1,0-0.1,0-0.1,0c-0.1,0-0.2,0-0.2,0c-3.2,0-6.4,0-9.6,0c-0.4,0-0.4,0-0.4-0.4
		c0-0.9,0-1.8,0-2.8c0-0.3,0-0.3,0.3-0.3c2.1,0,4.2,0,6.3,0c0.1,0,0.2,0,0.3,0c-0.2-0.7-0.4-1.3-1-1.7c-0.4-0.3-0.8-0.4-1.2-0.5
		c-0.2,0-0.4,0-0.5,0c-2.8,0-5.5,0-8.3,0c-0.3,0-0.6,0-0.9,0.1c-0.6,0.1-1.1,0.5-1.4,1c-0.2,0.3-0.3,0.7-0.4,1.1c0,0.1,0,0.2,0,0.3
		c0,1.8,0,3.5,0,5.3c0,0.4,0.1,0.8,0.4,1.1c0.2,0.2,0.3,0.4,0.5,0.5c0.2,0.1,0.4,0.2,0.6,0.4c0.5,0.2,0.5,0.2,1,0.2
		c2.9,0,5.9,0,8.8,0c0.2,0,0.5,0,0.7-0.1c0.5-0.1,0.8-0.4,1.1-0.8c0.2-0.3,0.4-0.6,0.5-1C151.7,28,151.8,27.9,151.8,27.7z"/>
	<path class="st0" d="M100.7,33.4c-1.6,0-3.1,0-4.7,0c-0.7,0-1.3-0.1-1.9-0.4c-0.5-0.2-0.9-0.5-1.2-0.8c-0.6-0.5-1.2-1.2-1.6-1.9
		c-0.3-0.4-0.4-0.8-0.6-1.3c-0.2-0.7-0.3-1.4-0.3-2.2c0-1.3,0-2.6,0-3.8c0-1.1,0.3-2.2,0.8-3.2c0.5-0.8,1.1-1.5,1.9-2.1
		c0.7-0.6,1.5-0.9,2.4-1.1c0.3,0,0.5-0.1,0.8-0.1c3.1,0,6.1,0,9.2,0c1.5,0,2.7,0.6,3.7,1.6c0.5,0.5,0.9,1.2,1.3,1.8
		c0.4,0.6,0.6,1.3,0.7,2.1c0.1,0.4,0.1,0.8,0.1,1.3c0,1,0,1.9,0,2.9c0,0.4,0,0.8,0,1.2c-0.1,1.4-0.6,2.6-1.5,3.7
		c-0.5,0.6-1.1,1.1-1.7,1.5c-0.6,0.4-1.2,0.6-1.9,0.8c-0.2,0-0.5,0-0.7,0C103.9,33.4,102.3,33.4,100.7,33.4z M100.8,29.9
		c1.5,0,3,0,4.5,0c0.8,0,1.4-0.3,1.8-1c0.2-0.3,0.3-0.6,0.5-0.9c0.1-0.2,0.1-0.3,0.1-0.5c0-1.7,0-3.4,0-5c0-0.2,0-0.3,0-0.5
		c-0.1-0.5-0.3-1-0.8-1.3c-0.6-0.4-1.2-0.7-1.9-0.7c-2.8,0-5.5,0-8.3,0c-0.2,0-0.4,0-0.5,0c-0.5,0-0.9,0.2-1.3,0.5
		c-0.5,0.4-0.9,1.3-0.9,2c0,1.7,0,3.3,0,5c0,0.1,0,0.2,0,0.3c0,0.3,0.1,0.5,0.2,0.8c0.2,0.3,0.4,0.6,0.7,0.8
		c0.3,0.2,0.6,0.3,0.9,0.5c0.2,0.1,0.3,0.1,0.5,0.1C97.7,29.9,99.3,29.9,100.8,29.9z"/>
	<path class="st0" d="M78.8,33.4c-1.6,0-3.1,0-4.7,0c-0.7,0-1.3-0.1-1.9-0.4c-0.6-0.3-1.1-0.6-1.5-1.1c-0.5-0.5-1-1.1-1.3-1.7
		c-0.3-0.4-0.4-0.9-0.6-1.3c-0.2-0.7-0.3-1.3-0.3-2c0-1.3,0-2.6,0-4c0-1,0.2-1.9,0.7-2.8c0.4-0.8,1-1.5,1.6-2.1
		c0.2-0.1,0.3-0.3,0.5-0.4c0.7-0.5,1.5-0.8,2.3-1c0.3-0.1,0.6-0.1,0.9-0.1c3,0,5.9,0,8.9,0c1.7,0,3,0.6,4.1,1.9c0.5,0.6,1,1.3,1.3,2
		c0.2,0.4,0.3,0.8,0.4,1.2c0.1,0.5,0.2,1,0.2,1.6c0,1.3,0,2.6,0,3.9c0,2-0.9,3.7-2.4,5c-0.5,0.4-1.1,0.8-1.7,1.1
		c-0.5,0.2-1,0.3-1.6,0.3C81.9,33.4,80.4,33.4,78.8,33.4z M78.8,29.9c1.1,0,2.2,0,3.3,0c0.4,0,0.8,0,1.3,0c0.7,0,1.3-0.3,1.7-0.8
		c0.2-0.3,0.4-0.6,0.5-0.9c0.1-0.2,0.1-0.4,0.1-0.6c0-1.6,0-3.3,0-4.9c0-0.1,0-0.3,0-0.4c0-0.7-0.3-1.2-0.9-1.6
		c-0.3-0.2-0.5-0.3-0.8-0.4c-0.3-0.1-0.7-0.2-1-0.2c-2.8,0-5.5,0-8.3,0c-0.2,0-0.4,0-0.5,0c-0.7,0.1-1.3,0.4-1.7,1
		c-0.2,0.3-0.3,0.6-0.4,0.9c-0.1,0.2-0.1,0.4-0.1,0.5c0,0.7,0,1.3,0,2c0,1,0,2,0,3.1c0,0.2,0,0.4,0.1,0.6c0.1,0.4,0.4,0.7,0.7,1
		c0.3,0.3,0.7,0.4,1,0.6c0.2,0.1,0.3,0.1,0.5,0.1C75.7,29.9,77.3,29.9,78.8,29.9z"/>
	<path class="st0" d="M67.1,33.4C67,33.4,67,33.4,67.1,33.4c-1.2,0-2.2,0-3.3,0c0,0-0.1,0-0.1,0c0-0.1,0-0.1,0-0.2
		c0-0.1,0-0.2,0-0.3c0-3.5,0-7,0-10.4c0-0.2,0-0.5-0.1-0.7c-0.1-0.5-0.4-0.9-0.8-1.2c-0.3-0.2-0.6-0.3-0.9-0.5
		C61.5,20.1,61.2,20,61,20c-2.8,0-5.6,0-8.4,0c-0.3,0-0.5,0-0.8,0.1c-0.7,0.1-1.2,0.5-1.5,1.1c-0.2,0.3-0.3,0.6-0.4,0.9
		c0,0.1,0,0.2,0,0.2c0,0.1,0,0.2,0,0.3c0,3.5,0,6.9,0,10.4c0,0.1,0,0.2,0,0.3c0,0.1,0,0.2-0.2,0.2c0,0-0.1,0-0.1,0c-1,0-1.9,0-2.9,0
		c-0.3,0-0.3,0-0.3-0.3c0-3.3,0-6.7,0-10c0-0.9,0.1-1.8,0.5-2.6c0.3-0.8,0.9-1.6,1.5-2.2c0.3-0.3,0.6-0.5,0.9-0.7
		c0.7-0.5,1.6-0.9,2.5-1c0.2,0,0.4,0,0.7,0c3,0,6,0,9,0c0.7,0,1.4,0.1,2.1,0.4c0.6,0.3,1.2,0.7,1.7,1.2c0.7,0.7,1.2,1.5,1.6,2.4
		c0.2,0.4,0.3,0.8,0.4,1.2c0.1,0.5,0.1,0.9,0.1,1.4c0,3.3,0,6.6,0,9.9C67.1,33.1,67.1,33.3,67.1,33.4z"/>
	<path class="st0" d="M129.7,33.4c0,0,0-0.1,0-0.1c0-0.1,0-0.2,0-0.3c0-3.4,0-6.9,0-10.3c0-0.2,0-0.5-0.1-0.7
		c-0.1-0.5-0.4-0.9-0.7-1.2c-0.3-0.2-0.7-0.4-1-0.5c-0.3-0.1-0.6-0.1-0.8-0.1c-2.8,0-5.6,0-8.4,0c-0.3,0-0.5,0-0.8,0.1
		c-0.7,0.1-1.2,0.5-1.5,1.1c-0.2,0.3-0.3,0.6-0.4,1c0,0.1,0,0.2,0,0.3c0,1.1,0,2.3,0,3.4c0,2.4,0,4.8,0,7.1c0,0.1,0,0.2,0,0.4
		c-0.1,0-0.1,0-0.2,0c0,0-0.1,0-0.1,0c-0.9,0-1.9,0-2.8,0c-0.1,0-0.2,0-0.3,0c0,0,0-0.1,0-0.2c0-0.1,0-0.1,0-0.2c0-3.3,0-6.7,0-10
		c0-0.9,0.2-1.7,0.5-2.6c0.4-1,1-1.8,1.8-2.4c0.2-0.1,0.3-0.3,0.5-0.4c0.7-0.5,1.5-0.8,2.3-1c0.3,0,0.6-0.1,0.8-0.1c3,0,5.9,0,8.9,0
		c1.6,0,2.9,0.6,4,1.8c0.6,0.6,1,1.3,1.4,2.1c0.2,0.4,0.3,0.8,0.4,1.2c0.1,0.5,0.2,1.1,0.2,1.6c0,3.3,0,6.5,0,9.8c0,0.1,0,0.2,0,0.3
		c0,0.1,0,0.1-0.1,0.1c-0.1,0-0.1,0-0.2,0c-0.9,0-1.9,0-2.8,0C129.9,33.4,129.8,33.4,129.7,33.4z"/>
	<path class="st0" d="M25.3,30.8c0.3,0.4,4.8,8.1,4.9,8.3c0,0,0,0,0,0c-3.2,0-6.4,0-9.6,0c0,0-0.1,0-0.1,0c0-0.1,0-0.2,0.1-0.2
		c0.5-0.9,1.1-1.8,1.6-2.7c1-1.7,2-3.4,3.1-5.2C25.2,31,25.2,30.9,25.3,30.8z"/>
	<path class="st0" d="M18.2,25.9C18.3,25.9,18.3,25.9,18.2,25.9c0.4-0.1,8.6,0,8.8,0c0,0,0,0.1,0,0.1c0,0.3-0.2,0.6-0.4,0.9
		c-0.1,0.1-0.1,0.1-0.2,0.2c0,0.1,0,0.2,0,0.3c0,0.2,0,0.3-0.1,0.5c-0.3,0.4-0.5,0.8-0.7,1.2c-0.9,1.6-1.9,3.2-2.8,4.8
		c0,0.1-0.1,0.2-0.2,0.3c-0.1-0.1-0.1-0.2-0.2-0.2c-0.6-1-1.3-2.1-1.9-3.1c-0.6-0.9-1.1-1.9-1.7-2.8c-0.1-0.2-0.2-0.4-0.1-0.6
		c0,0,0-0.1,0-0.1c0-0.2,0-0.3-0.1-0.4C18.4,26.7,18.3,26.3,18.2,25.9z"/>
	<path class="st0" d="M28.1,16.8c0.1-0.2,0.2-0.5,0.3-0.7c0.1-0.3,0.2-0.6,0.2-0.9c0-0.1,0-0.1,0-0.2c0-0.5-0.2-0.8-0.6-1
		c0,0-0.1,0-0.1-0.1c-0.1,0-0.1-0.1-0.1-0.2c-0.1-1-0.7-1.6-1.7-1.9c-0.2,0-0.3-0.1-0.5-0.1c-0.1,0-0.2-0.1-0.3-0.2
		c-0.1-0.1-0.3-0.3-0.5-0.4c-0.3-0.2-0.7-0.3-1.1-0.4c-0.3,0-0.5,0-0.8,0.1c-0.1,0-0.2,0.1-0.4,0.1c-0.7-0.4-1.4-0.4-2.2-0.1
		c0.3-0.2,0.7-0.3,1.1-0.3c0.4,0,0.7,0.1,1.1,0.2c0.3-0.1,0.5-0.2,0.7-0.2c0.5-0.1,1,0,1.5,0.2c0.2,0.1,0.4,0.3,0.6,0.5
		c0.1,0.1,0.2,0.1,0.3,0.1c0.5,0.1,0.9,0.2,1.3,0.4c0.5,0.3,0.9,0.8,1,1.4c0,0.1,0,0.2,0.1,0.3c0,0,0,0,0,0c0.1,0.1,0.2,0.1,0.3,0.2
		c0.3,0.2,0.5,0.6,0.5,1c0,0.4,0,0.8-0.1,1.1c-0.1,0.3-0.2,0.6-0.4,0.8c0.1,0.3,0.1,0.6,0.2,0.9c0.1,0.3,0,0.6-0.1,1
		c-0.2,0.5-0.3,1-0.3,1.5c0,0.1,0,0.2,0,0.3c0.1,0.1,0.1,0,0.1,0c0.1,0,0.2-0.1,0.2-0.1c0.3-0.1,0.5,0.1,0.5,0.3c0,0.1,0,0.3,0,0.4
		c-0.1,0.2-0.1,0.4-0.2,0.5c-0.1,0.3-0.3,0.5-0.5,0.7c-0.1,0.1-0.1,0.2-0.2,0.3C28.1,23,28,23.3,28,23.6c0,0.1,0,0.1,0,0.2
		c-0.1,0.3-0.2,0.4-0.5,0.5c-0.1,0-0.1,0-0.2,0.1c0,0.1,0,0.1-0.1,0.2c-0.1-0.2-1.5-2.3-1.8-2.8c0,0,0-0.1,0-0.1c0.3,0,0.6,0,0.9,0
		c0.3,0,0.6,0,0.8,0c0.3,0,0.6,0,0.9,0c0.3,0,0.6,0,0.8,0c0.2-0.3,0.2-0.5,0.2-0.8c0-0.1,0-0.2-0.1-0.2c-0.1-0.1-0.1-0.1-0.2-0.1
		c-0.2,0.1-0.3,0.1-0.4,0.2c0,0-0.1,0-0.1,0.1c0,0-0.1-0.1-0.1-0.1c0-0.1,0-0.3-0.1-0.4c0-0.5,0-1.1,0.2-1.6c0.2-0.5,0.1-1,0-1.6
		C28.2,17,28.2,16.9,28.1,16.8z"/>
	<path class="st0" d="M20.1,21.7c0.8,1.2,1.5,2.4,2.3,3.7c0,0.1-0.1,0.1-0.1,0.1c-0.3,0-0.6,0-1,0c-0.9,0-1.9,0-2.8,0
		c-0.1,0-0.2,0-0.3,0c0-0.2,0-0.3-0.1-0.5c0,0,0-0.1,0-0.1c0,0,0-0.1,0.1-0.1c0.6-0.9,1.1-1.8,1.7-2.8C20,21.8,20,21.7,20.1,21.7z"
		/>
	<path class="st0" d="M28.2,34.9c0,0,0.1,0,0.1,0c1.5,0,2.9,0,4.4,0c0,0,0.1,0,0.1,0c0,0.1-0.1,0.1-0.1,0.2
		c-1.1,1.8-2.1,3.4-2.2,3.5C30.3,38.3,28.3,35.1,28.2,34.9z"/>
	<path class="st0" d="M19.9,20.8C19.9,20.8,19.9,20.8,19.9,20.8c-0.8-1.3-1.6-2.5-2.3-3.7c0,0,0,0,0-0.1c0.3,0,3.1-0.1,4.4,0
		c0.1,0,0.1,0,0.2,0c0,0,0,0.1,0,0.1C21.4,18.4,20.7,19.6,19.9,20.8z"/>
	<path class="st0" d="M32.8,34.5c0,0-0.1,0-0.1,0c-1.5,0-2.9,0-4.4,0c0,0-0.1,0-0.1,0c0-0.1,0-0.1,0.1-0.2c0.3-0.5,0.6-1,0.9-1.5
		c0.2-0.3,0.3-0.5,0.5-0.8c0,0,0.1-0.1,0.1-0.1c0.1,0,0.1,0.1,0.2,0.1c0.6,0.3,1.1,0.7,1.7,0.9c0.1,0.1,0.3,0.2,0.3,0.3
		c0.2,0.4,0.5,0.8,0.7,1.1C32.8,34.4,32.8,34.5,32.8,34.5z"/>
	<path class="st0" d="M35.1,34.9C35.1,34.9,35.1,34.8,35.1,34.9c0.4,0,0.7,0,1.1,0c0.1,0,0.2,0,0.2,0c0.9,0.3,1.7,0.6,2.4,1.2
		c0,0,0.1,0.1,0.1,0.1c0,0,0,0.1,0,0.1c-0.4,0.7-0.9,1.4-1.3,2.2c0,0,0,0.1-0.1,0.1c-0.1,0-0.1-0.1-0.1-0.1c-0.3-0.5-0.7-1.1-1-1.6
		c-0.4-0.6-0.7-1.2-1.1-1.7C35.1,35,35.1,35,35.1,34.9z"/>
	<path class="st0" d="M19.6,21c0,0-0.1,0-0.1,0c-0.9,0-2.9,0-3.2,0c-0.1-0.1,0-0.3,0-0.4c0-0.1,0.2-0.2,0.3-0.3
		c0.1-0.4,0.1-0.7,0.2-1.1c0-0.1,0-0.3,0.1-0.4c0.1-0.2,0.1-0.5,0.1-0.7c0-0.1,0-0.2,0.1-0.3c0.1-0.2,0.2-0.3,0.3-0.5
		c0,0,0-0.1,0.1-0.1c0,0,0.1,0,0.1,0C18.1,18.5,18.8,19.7,19.6,21C19.6,20.9,19.6,20.9,19.6,21z"/>
	<path class="st0" d="M15.3,32c0,0.1-0.1,0.1-0.2,0.2c-0.6,0.4-1.2,0.7-1.9,1c-1.2,0.6-2.4,1.1-3.6,1.6c-0.2,0.1-0.3,0.1-0.5,0.2
		c-0.8,0.2-1.6,0.6-2.3,1.1c-0.9,0.7-1.5,1.6-1.8,2.8c0,0.1,0,0.1,0,0.2c0.1,0.1,0.1,0.1,0.2,0.1c1,0,2,0,2.9,0c0.8,0,1.6,0,2.4,0
		c0.8,0,1.6,0,2.5,0c1.3,0,2.5,0,3.8,0.1c0.5,0,1.1,0,1.6,0c0.1,0,0.2,0,0.3,0c-0.1,0-0.3,0-0.4,0c-1.1,0-2.2,0-3.3,0.1
		c-1.1,0-2.1,0-3.2,0c-1.5,0-3,0-4.5,0c-0.7,0-1.4,0-2.1,0c-0.3,0-0.4,0-0.3-0.4c0.3-1.3,0.9-2.4,2-3.2c0.6-0.5,1.4-0.8,2.1-1
		c0.3-0.1,0.6-0.2,0.9-0.3c1.3-0.5,2.7-1.1,3.9-1.7c0.4-0.2,0.9-0.5,1.3-0.7C15.1,32.1,15.2,32,15.3,32L15.3,32z"/>
	<path class="st0" d="M17.3,16.2C17.2,16.2,17.2,16.2,17.3,16.2c-0.3-0.4-0.5-0.7-0.7-1c0-0.1-0.1-0.1-0.1-0.2c0-0.4,0.2-0.8,0.5-1
		c0.1-0.1,0.2-0.1,0.3-0.2c0.1-0.5,0.2-0.9,0.6-1.3c0.6,0,1.1,0,1.7,0c0,0.1,0,0.1-0.1,0.1c-0.7,1.2-1.4,2.3-2.2,3.5
		C17.3,16.1,17.3,16.2,17.3,16.2z"/>
	<path class="st0" d="M16.5,21.6c0.3,0,2.9,0,3.1,0c0,0,0,0.1,0,0.1c-0.5,0.9-1.1,1.7-1.6,2.6c-0.2,0-0.3-0.1-0.4-0.2
		c-0.1-0.1-0.2-0.3-0.2-0.4c0-0.3-0.1-0.7-0.2-1c0-0.1-0.1-0.3-0.2-0.4c-0.1-0.2-0.3-0.4-0.4-0.6C16.5,21.7,16.5,21.6,16.5,21.6z"/>
	<path class="st0" d="M22.4,16.3c-0.3-0.5-0.7-1-1-1.6c0,0,0.1,0,0.1,0c0.6,0,1.2,0,1.7,0c0,0,0.1,0,0.1,0c0,0,0,0,0,0.1
		C23.1,15.2,22.7,15.7,22.4,16.3z"/>
	<path class="st0" d="M24.6,25.5c-0.5,0-1.7,0-1.9,0c0.1-0.2,0.7-1.3,0.9-1.5c0,0,0.1,0,0.1,0.1c0.3,0.5,0.6,0.9,0.9,1.4
		C24.6,25.4,24.6,25.4,24.6,25.5z"/>
	<path class="st0" d="M27.8,30.8c0.3,0.5,0.6,1,1,1.6c-0.3,0-1.7,0-1.9,0c0,0,0-0.1,0-0.1C27.1,31.8,27.4,31.3,27.8,30.8
		C27.7,30.8,27.8,30.8,27.8,30.8z"/>
	<path class="st0" d="M18.6,32.2c-0.2-0.2-0.7-1.1-0.9-1.5c0,0,0-0.1,0-0.1c0.6,0,1.3,0,1.9,0c0,0,0,0,0,0c0,0,0,0,0,0
		c-0.1,0.2-0.3,0.5-0.4,0.7C18.9,31.6,18.8,31.9,18.6,32.2z"/>
	<path class="st0" d="M27.8,34.4c-0.3-0.5-0.6-1-0.9-1.5c0,0,0-0.1,0-0.1c0.2,0,1.6,0,1.9,0c-0.1,0.2-0.4,0.7-0.9,1.4
		C27.9,34.3,27.9,34.4,27.8,34.4z"/>
	<path class="st0" d="M32.2,36.5C32.2,36.4,32.2,36.4,32.2,36.5c0.3-0.5,0.6-1,0.9-1.5c0,0,0-0.1,0.1-0.1c0,0,0.1,0,0.1,0
		c0.3,0.5,0.6,1,0.9,1.5c0,0,0,0,0,0c0,0,0,0,0,0c-0.6,0-1.2,0-1.7,0C32.3,36.5,32.2,36.5,32.2,36.5z"/>
	<path class="st0" d="M22.5,12.7c0.2,0.2,0.8,1.3,1,1.6c-0.3,0-0.6,0-0.9,0c-0.3,0-0.6,0-0.9,0c-0.1-0.1,0-0.1,0-0.1
		c0.3-0.4,0.5-0.9,0.8-1.3C22.4,12.7,22.4,12.7,22.5,12.7z"/>
	<path class="st0" d="M25.7,30.5c0.3,0,1.1-0.1,1.7,0c0.1,0,0.1,0,0.2,0c0,0,0,0.1,0,0.1c-0.3,0.5-0.6,1-0.9,1.4
		c-0.1,0-0.1,0-0.1-0.1c-0.3-0.4-0.5-0.9-0.8-1.3C25.7,30.6,25.7,30.5,25.7,30.5z"/>
	<path class="st0" d="M21.4,33c0.1,0.2,0.5,0.7,0.9,1.4c0,0,0,0.1,0.1,0.1c-0.1,0-0.1,0-0.2,0c-0.6,0-1.5,0-1.7,0
		c0-0.1,0.1-0.2,0.2-0.3c0.1-0.1,0.1-0.2,0.2-0.3c0.1-0.1,0.1-0.2,0.2-0.3c0.1-0.1,0.1-0.2,0.2-0.3C21.2,33.2,21.3,33.1,21.4,33z"/>
	<path class="st0" d="M22.1,12.4c-0.1,0.2-0.6,1.1-0.9,1.5c0,0-0.1-0.1-0.1-0.1c-0.3-0.4-0.6-0.9-0.8-1.3c0,0,0-0.1,0-0.1
		c0,0,0.1,0,0.1,0C20.9,12.3,21.9,12.4,22.1,12.4z"/>
	<path class="st0" d="M22.8,12.4c0,0,0.1,0,0.1,0c0.3,0,1.6,0,1.8,0c0,0,0,0.1,0,0.1c-0.3,0.4-0.5,0.8-0.8,1.2
		c0,0.1-0.1,0.1-0.1,0.2c0,0-0.1-0.1-0.1-0.1C23.2,13.2,22.9,12.6,22.8,12.4z"/>
	<path class="st0" d="M25.5,30c0.1-0.2,0.9-1.4,1-1.6c0.1,0.2,0.1,0.4,0.1,0.6c0.1,0.2,0.1,0.4,0.2,0.6c0.1,0.2,0.2,0.3,0.2,0.5
		c0,0-0.1,0-0.1,0C26.5,30.1,26,30.1,25.5,30C25.5,30.1,25.5,30,25.5,30z"/>
	<path class="st0" d="M18.2,30.2c0.3-0.4,0.4-0.9,0.5-1.3c0.1,0.2,0.7,1,0.8,1.3c0,0,0,0,0,0c0,0,0,0,0,0c0,0-0.1,0-0.1,0
		C19,30.2,18.6,30.2,18.2,30.2z"/>
	<path class="st0" d="M34.3,36c0.1-0.2,0.4-0.8,0.6-1c0.2,0.2,0.6,0.8,0.6,1C35.2,36.1,34.5,36.1,34.3,36z"/>
	<path class="st0" d="M33.4,34.5c0.1-0.2,0.3-0.4,0.4-0.6c0.2,0,0.8,0.3,1.6,0.6c0,0,0,0,0,0c0,0,0,0,0,0c-0.6,0-1.2,0-1.8,0
		C33.5,34.6,33.4,34.6,33.4,34.5z"/>
	<path class="st0" d="M34.7,34.9c-0.1,0.2-0.4,0.7-0.6,1c0,0-0.1,0-0.1-0.1c-0.2-0.3-0.4-0.6-0.6-0.9c0,0,0,0,0,0c0,0,0,0,0,0
		C33.9,34.8,34.2,34.8,34.7,34.9C34.6,34.8,34.7,34.8,34.7,34.9z"/>
	<path class="st0" d="M32.5,33.3c0.4,0.1,0.8,0.4,1,0.5c-0.1,0.2-0.2,0.4-0.3,0.5c0,0-0.1,0-0.1,0C32.9,34,32.7,33.7,32.5,33.3z"/>
	<path class="st0" d="M28.7,31.1c0.3,0.2,0.5,0.4,0.8,0.6c0,0.1-0.1,0.2-0.2,0.3c0,0-0.1,0-0.1,0C29,31.7,28.9,31.4,28.7,31.1z"/>
	<path class="st0" d="M15.3,32c0-0.1,0.2-0.1,0.2-0.2C15.4,32,15.4,32,15.3,32L15.3,32z"/>
</g>
</svg>
