<?xml version="1.0" encoding="utf-8"?>
<!-- Generator: Adobe Illustrator 25.2.3, SVG Export Plug-In . SVG Version: 6.00 Build 0)  -->
<svg version="1.1" id="Capa_1" xmlns="http://www.w3.org/2000/svg" xmlns:xlink="http://www.w3.org/1999/xlink" x="0px" y="0px"
	 viewBox="0 0 195 55" style="enable-background:new 0 0 195 55;" xml:space="preserve">
<style type="text/css">
	.st0{fill:#FFFFFF;}
</style>
<g>
	<path class="st0" d="M185.7,30.8c0.1,0,0.2,0,0.3,0c1.1,0,2.3,0,3.4,0c0.4,0,0.4,0.1,0.4,0.4c-0.2,1.1-0.6,2.2-1.2,3.1
		c-0.6,0.9-1.4,1.8-2.4,2.4c-0.7,0.5-1.5,0.9-2.4,1c-0.3,0-0.6,0.1-1,0.1c-2.8,0-5.6,0-8.4,0c-1,0-2,0-3,0c-1.6,0-3-0.5-4.2-1.6
		c-0.7-0.7-1.4-1.4-1.9-2.2c-0.3-0.5-0.5-1-0.7-1.6c-0.3-0.9-0.4-1.7-0.4-2.6c0-1.5,0-3.1,0-4.6c0-1.1,0.2-2.2,0.6-3.3
		c0.4-1,1-1.9,1.8-2.6c0.3-0.3,0.7-0.6,1.1-0.9c0.9-0.7,1.9-1.1,3.1-1.2c0.3,0,0.5,0,0.8,0c3.7,0,7.3,0,11,0c1,0,1.9,0.2,2.8,0.6
		c0.8,0.4,1.5,0.9,2.1,1.6c0.5,0.6,1,1.2,1.4,1.9c0.5,0.7,0.7,1.5,0.9,2.4c0.1,0.3,0.1,0.6,0.1,0.9c0,1.2,0,2.4,0,3.5
		c0,0.1,0,0.2,0,0.3c-0.1,0-0.1,0-0.2,0.1c-0.1,0-0.2,0-0.3,0c-3.9,0-7.9,0-11.8,0c-0.5,0-0.5,0-0.5-0.5c0-1.1,0-2.3,0-3.4
		c0-0.4,0-0.4,0.4-0.4c2.6,0,5.2,0,7.7,0c0.1,0,0.3,0,0.4,0c-0.2-0.8-0.5-1.5-1.2-2.1c-0.4-0.4-1-0.5-1.5-0.6c-0.2,0-0.4,0-0.7,0
		c-3.4,0-6.8,0-10.1,0c-0.4,0-0.7,0-1.1,0.1c-0.8,0.2-1.3,0.6-1.8,1.2c-0.3,0.4-0.4,0.8-0.5,1.3c0,0.1,0,0.2,0,0.3
		c0,2.2,0,4.3,0,6.5c0,0.5,0.2,1,0.5,1.4c0.2,0.2,0.4,0.4,0.6,0.6c0.2,0.2,0.5,0.3,0.7,0.4c0.6,0.3,0.6,0.3,1.2,0.3
		c3.6,0,7.2,0,10.8,0c0.3,0,0.6,0,0.9-0.1c0.6-0.2,1-0.5,1.4-0.9c0.3-0.4,0.5-0.8,0.6-1.2C185.5,31.2,185.6,31,185.7,30.8z"/>
	<path class="st0" d="M122.9,37.8c-1.9,0-3.8,0-5.7,0c-0.8,0-1.6-0.2-2.4-0.5c-0.6-0.3-1.1-0.6-1.5-1c-0.8-0.7-1.4-1.5-2-2.3
		c-0.3-0.5-0.5-1-0.7-1.6c-0.3-0.9-0.4-1.7-0.4-2.6c0-1.6,0-3.1,0-4.7c0-1.4,0.3-2.7,1-3.9c0.6-1,1.4-1.9,2.3-2.6
		c0.9-0.7,1.8-1.1,2.9-1.3c0.3-0.1,0.6-0.1,1-0.1c3.8,0,7.5,0,11.3,0c1.8,0,3.3,0.7,4.6,2c0.6,0.7,1.2,1.4,1.6,2.2
		c0.4,0.8,0.7,1.7,0.8,2.5c0.1,0.5,0.1,1,0.1,1.6c0,1.2,0,2.4,0,3.5c0,0.5,0,1,0,1.5c-0.1,1.7-0.7,3.2-1.8,4.6
		c-0.6,0.7-1.3,1.3-2.1,1.8c-0.7,0.5-1.5,0.8-2.3,0.9c-0.3,0-0.6,0-0.8,0.1C126.8,37.8,124.9,37.8,122.9,37.8z M123,33.6
		c1.9,0,3.7,0,5.6,0c1,0,1.7-0.4,2.3-1.2c0.2-0.3,0.4-0.7,0.6-1.1c0.1-0.2,0.1-0.4,0.1-0.6c0-2.1,0-4.1,0-6.2c0-0.2,0-0.4-0.1-0.6
		c-0.1-0.7-0.4-1.2-0.9-1.6c-0.7-0.5-1.5-0.8-2.4-0.8c-3.4,0-6.8,0-10.2,0c-0.2,0-0.4,0-0.7,0c-0.6,0.1-1.1,0.3-1.6,0.7
		c-0.6,0.5-1.1,1.6-1.1,2.4c0,2,0,4.1,0,6.1c0,0.1,0,0.2,0,0.4c0,0.3,0.1,0.6,0.3,0.9c0.2,0.4,0.5,0.7,0.9,1
		c0.3,0.2,0.7,0.4,1.1,0.6c0.2,0.1,0.4,0.1,0.6,0.1C119.3,33.6,121.1,33.6,123,33.6z"/>
	<path class="st0" d="M96,37.8c-1.9,0-3.8,0-5.7,0c-0.8,0-1.6-0.2-2.4-0.5C87.2,37,86.6,36.6,86,36c-0.6-0.6-1.2-1.3-1.6-2
		c-0.3-0.5-0.5-1.1-0.7-1.7c-0.3-0.8-0.4-1.6-0.4-2.5c0-1.6,0-3.2,0-4.9c0-1.2,0.3-2.4,0.8-3.5c0.5-1,1.2-1.8,2-2.6
		c0.2-0.2,0.4-0.3,0.6-0.5c0.8-0.7,1.8-1,2.8-1.2c0.3-0.1,0.7-0.1,1.1-0.1c3.6,0,7.3,0,10.9,0c2,0,3.7,0.8,5,2.3
		c0.7,0.8,1.2,1.6,1.6,2.5c0.2,0.4,0.3,0.9,0.5,1.4c0.1,0.6,0.2,1.3,0.2,1.9c0,1.6,0,3.2,0,4.8c0,2.5-1.1,4.5-2.9,6.1
		c-0.6,0.5-1.3,1-2.1,1.3c-0.6,0.2-1.3,0.4-1.9,0.4C99.9,37.8,97.9,37.8,96,37.8z M96,33.6c1.4,0,2.7,0,4.1,0c0.5,0,1,0,1.6,0
		c0.9,0,1.6-0.3,2.1-1c0.3-0.3,0.5-0.7,0.6-1.1c0.1-0.2,0.1-0.5,0.1-0.8c0-2,0-4,0-6.1c0-0.2,0-0.3,0-0.5c-0.1-0.8-0.4-1.5-1.1-1.9
		c-0.3-0.2-0.7-0.4-1-0.5c-0.4-0.2-0.8-0.2-1.2-0.2c-3.4,0-6.8,0-10.2,0c-0.2,0-0.4,0-0.7,0c-0.9,0.1-1.6,0.5-2.1,1.2
		c-0.2,0.3-0.4,0.7-0.5,1.1c-0.1,0.2-0.1,0.4-0.1,0.7c0,0.8,0,1.7,0,2.5c0,1.3,0,2.5,0,3.8c0,0.3,0,0.5,0.1,0.8
		c0.1,0.5,0.4,0.9,0.8,1.2c0.4,0.3,0.8,0.6,1.3,0.8c0.2,0.1,0.4,0.1,0.6,0.1C92.3,33.6,94.1,33.6,96,33.6z"/>
	<path class="st0" d="M81.7,37.8c-0.1,0-0.1,0-0.1,0c-1.3,0-2.6,0-3.9,0c0,0-0.1,0-0.2,0c0-0.1,0-0.1,0-0.2c0-0.1,0-0.2,0-0.3
		c0-4.3,0-8.5,0-12.8c0-0.3,0-0.6-0.1-0.9c-0.2-0.6-0.5-1.1-1-1.4c-0.3-0.2-0.7-0.4-1.1-0.6c-0.3-0.1-0.7-0.2-1-0.2
		c-3.5,0-6.9,0-10.4,0c-0.3,0-0.7,0-1,0.1c-0.8,0.2-1.4,0.6-1.9,1.4c-0.2,0.3-0.3,0.7-0.4,1.1c0,0.1,0,0.2,0,0.3c0,0.1,0,0.2,0,0.3
		c0,4.2,0,8.5,0,12.7c0,0.1,0,0.2,0,0.3c0,0.2-0.1,0.2-0.2,0.2c-0.1,0-0.1,0-0.2,0c-1.2,0-2.3,0-3.5,0c-0.4,0-0.4,0-0.4-0.4
		c0-4.1,0-8.2,0-12.3c0-1.1,0.2-2.2,0.6-3.2c0.4-1,1-1.9,1.8-2.7c0.3-0.3,0.7-0.6,1.1-0.9c0.9-0.7,1.9-1.1,3-1.2
		c0.3,0,0.5,0,0.8-0.1c3.7,0,7.3,0,11,0c0.9,0,1.7,0.2,2.5,0.5c0.8,0.3,1.5,0.8,2.1,1.4c0.8,0.9,1.5,1.8,2,2.9
		c0.2,0.5,0.3,1,0.5,1.5c0.1,0.6,0.2,1.1,0.2,1.7c0,4,0,8.1,0,12.1C81.7,37.5,81.7,37.6,81.7,37.8z"/>
	<path class="st0" d="M158.5,37.8c0,0,0-0.1,0-0.2c0-0.1,0-0.2,0-0.4c0-4.2,0-8.5,0-12.7c0-0.3,0-0.6-0.1-0.9
		c-0.1-0.6-0.4-1.1-0.9-1.4c-0.4-0.3-0.8-0.5-1.3-0.7c-0.3-0.1-0.7-0.2-1-0.2c-3.5,0-6.9,0-10.4,0c-0.3,0-0.6,0-1,0.1
		c-0.8,0.2-1.5,0.7-1.9,1.4c-0.2,0.4-0.4,0.8-0.4,1.2c0,0.1,0,0.2,0,0.4c0,1.4,0,2.8,0,4.1c0,2.9,0,5.8,0,8.7c0,0.1,0,0.3,0,0.4
		c-0.1,0-0.1,0-0.2,0.1c-0.1,0-0.1,0-0.2,0c-1.2,0-2.3,0-3.5,0c-0.1,0-0.2,0-0.4,0c0-0.1,0-0.1,0-0.2c0-0.1,0-0.1,0-0.2
		c0-4.1,0-8.2,0-12.3c0-1.1,0.2-2.1,0.6-3.1c0.5-1.2,1.3-2.2,2.2-3c0.2-0.2,0.4-0.3,0.6-0.5c0.8-0.7,1.8-1,2.8-1.2
		c0.3-0.1,0.7-0.1,1-0.1c3.7,0,7.3,0,11,0c2,0,3.6,0.8,4.9,2.2c0.7,0.8,1.2,1.6,1.7,2.6c0.2,0.4,0.3,0.9,0.5,1.4
		c0.2,0.6,0.2,1.3,0.2,2c0,4,0,8,0,12c0,0.1,0,0.2,0,0.3c0,0.1-0.1,0.2-0.2,0.2c-0.1,0-0.2,0-0.2,0c-1.1,0-2.3,0-3.4,0
		C158.8,37.8,158.7,37.9,158.5,37.8z"/>
	<path class="st0" d="M30.3,34.6c0.3,0.5,5.9,9.9,6,10.2c0,0,0,0-0.1,0c-3.9,0-7.9,0-11.8,0c-0.1,0-0.1,0-0.2,0
		c0-0.1,0.1-0.2,0.1-0.3c0.6-1.1,1.3-2.2,1.9-3.3c1.3-2.1,2.5-4.2,3.8-6.3C30.2,34.9,30.3,34.8,30.3,34.6z"/>
	<path class="st0" d="M21.7,28.6c0,0,0.1,0,0.1,0c0.4,0,10.5,0,10.7,0c0.1,0,0,0.1,0,0.2c0,0.4-0.2,0.8-0.5,1.1
		c-0.1,0.1-0.1,0.2-0.2,0.2c0,0.1,0,0.3,0,0.4c0,0.2,0,0.4-0.1,0.6c-0.3,0.5-0.6,1-0.9,1.5c-1.2,1.9-2.3,3.9-3.5,5.8
		c-0.1,0.1-0.1,0.2-0.2,0.3c-0.1-0.1-0.1-0.2-0.2-0.3c-0.8-1.3-1.5-2.6-2.3-3.9c-0.7-1.1-1.3-2.3-2-3.4c-0.1-0.2-0.2-0.4-0.2-0.7
		c0,0,0-0.1,0-0.1c0-0.2,0-0.3-0.2-0.5C21.9,29.6,21.7,29.1,21.7,28.6z"/>
	<path class="st0" d="M33.8,17.4c0.1-0.3,0.3-0.6,0.4-0.9c0.1-0.3,0.2-0.7,0.3-1.1c0-0.1,0-0.1,0-0.2c0-0.6-0.3-1-0.8-1.3
		c-0.1,0-0.1-0.1-0.2-0.1c-0.1,0-0.1-0.1-0.1-0.2c-0.1-1.3-0.9-2-2.1-2.3c-0.2-0.1-0.4-0.1-0.6-0.1c-0.2,0-0.3-0.1-0.4-0.2
		c-0.2-0.2-0.4-0.3-0.6-0.5c-0.4-0.3-0.8-0.4-1.3-0.4c-0.3,0-0.6,0.1-0.9,0.2c-0.1,0.1-0.3,0.1-0.4,0.2c-0.9-0.4-1.7-0.5-2.6-0.1
		c0.4-0.3,0.8-0.4,1.3-0.4c0.5,0,0.9,0.1,1.3,0.3c0.3-0.1,0.6-0.2,0.9-0.3c0.6-0.1,1.3,0,1.8,0.3c0.3,0.1,0.5,0.3,0.7,0.6
		c0.1,0.1,0.2,0.2,0.4,0.2c0.6,0.1,1.1,0.2,1.6,0.5c0.7,0.4,1.1,1,1.2,1.7c0,0.1,0,0.2,0.1,0.3c0,0,0,0,0,0c0.1,0.1,0.2,0.1,0.3,0.2
		c0.4,0.3,0.6,0.7,0.7,1.2c0,0.5,0,0.9-0.2,1.4c-0.1,0.4-0.3,0.7-0.4,1c0.1,0.4,0.2,0.7,0.2,1.1c0.1,0.4,0,0.8-0.1,1.2
		c-0.2,0.6-0.3,1.2-0.4,1.8c0,0.1,0,0.3,0,0.4c0.1,0.1,0.1,0,0.2,0c0.1,0,0.2-0.1,0.3-0.1c0.3-0.1,0.6,0.1,0.6,0.4
		c0,0.2,0,0.3,0,0.5c-0.1,0.2-0.2,0.4-0.3,0.6c-0.2,0.3-0.4,0.6-0.6,0.9c-0.1,0.1-0.2,0.3-0.2,0.4c-0.1,0.4-0.3,0.8-0.3,1.2
		c0,0.1,0,0.1,0,0.2c-0.1,0.3-0.3,0.5-0.6,0.6c-0.1,0-0.2,0-0.3,0.1c0,0.1-0.1,0.1-0.1,0.2c-0.2-0.2-1.8-2.9-2.2-3.5
		c0,0,0-0.1-0.1-0.1c0.4,0,0.7,0,1.1,0c0.3,0,0.7,0,1,0c0.4,0,0.7,0,1.1,0c0.3,0,0.7,0,1,0c0.2-0.3,0.3-0.6,0.3-1
		c0-0.1,0-0.2-0.1-0.3c-0.1-0.1-0.2-0.1-0.3-0.1c-0.2,0.1-0.4,0.1-0.5,0.3c0,0-0.1,0.1-0.1,0.1c0,0-0.1-0.1-0.1-0.1
		c0-0.2-0.1-0.3-0.1-0.5c0-0.7,0-1.3,0.2-2c0.2-0.7,0.2-1.3,0-1.9C33.9,17.7,33.9,17.5,33.8,17.4z"/>
	<path class="st0" d="M24,23.4c0.9,1.5,1.9,3,2.8,4.5c0,0.1-0.1,0.1-0.2,0.1c-0.4,0-0.8,0-1.2,0c-1.1,0-2.3,0-3.4,0
		c-0.1,0-0.3,0-0.4-0.1c0-0.2-0.1-0.4-0.1-0.6c0-0.1,0-0.1,0-0.2c0-0.1,0.1-0.1,0.1-0.2c0.7-1.1,1.4-2.3,2.1-3.4
		C23.8,23.6,23.9,23.5,24,23.4z"/>
	<path class="st0" d="M33.9,39.6c0.1,0,0.1,0,0.1,0c1.8,0,3.6,0,5.4,0c0,0,0.1,0,0.1,0c0,0.1-0.1,0.2-0.1,0.2
		c-1.4,2.2-2.5,4.1-2.7,4.3C36.5,43.9,34.1,39.9,33.9,39.6z"/>
	<path class="st0" d="M23.8,22.3C23.7,22.3,23.7,22.3,23.8,22.3c-1-1.6-1.9-3-2.8-4.5c0,0,0,0,0-0.1c0.3-0.1,3.8-0.1,5.4,0
		c0.1,0,0.1,0,0.2,0c0,0,0,0.1,0,0.1C25.6,19.3,24.7,20.8,23.8,22.3z"/>
	<path class="st0" d="M39.6,39.2c-0.1,0-0.1,0-0.1,0c-1.8,0-3.6,0-5.4,0c0,0-0.1,0-0.1,0c0-0.1,0-0.1,0.1-0.2
		c0.4-0.6,0.8-1.2,1.2-1.9c0.2-0.3,0.4-0.7,0.6-1c0-0.1,0.1-0.1,0.1-0.2c0.1,0,0.1,0.1,0.2,0.1c0.7,0.4,1.4,0.8,2.1,1.1
		c0.2,0.1,0.3,0.2,0.4,0.4c0.3,0.5,0.6,0.9,0.9,1.4C39.5,39,39.6,39.1,39.6,39.2z"/>
	<path class="st0" d="M42.3,39.6c0,0,0.1,0,0.1,0c0.4,0,0.8,0,1.2,0c0.1,0,0.2,0,0.3,0c1.1,0.3,2.1,0.8,2.9,1.5c0,0,0.1,0.1,0.1,0.1
		c0,0,0,0.1,0,0.1c-0.5,0.9-1.1,1.8-1.6,2.6c0,0-0.1,0.1-0.1,0.1c-0.1,0-0.1-0.1-0.2-0.1c-0.4-0.7-0.8-1.3-1.2-2
		c-0.4-0.7-0.9-1.4-1.3-2.1C42.4,39.8,42.3,39.7,42.3,39.6z"/>
	<path class="st0" d="M23.4,22.6c-0.1,0-0.1,0-0.2,0c-1.2,0-3.6,0-3.9,0c-0.1-0.2-0.1-0.3,0-0.5c0.1-0.2,0.2-0.2,0.3-0.3
		c0.1-0.4,0.2-0.9,0.2-1.3c0-0.2,0-0.3,0.1-0.5c0.1-0.3,0.1-0.6,0.1-0.9c0-0.1,0-0.3,0.1-0.4c0.1-0.2,0.3-0.4,0.4-0.6
		c0,0,0.1-0.1,0.1-0.1c0,0,0.1,0,0.1,0C21.5,19.5,22.4,21,23.4,22.6C23.4,22.5,23.4,22.5,23.4,22.6z"/>
	<path class="st0" d="M18.1,36.1c0,0.1-0.1,0.1-0.2,0.2c-0.7,0.4-1.5,0.9-2.3,1.2c-1.4,0.7-2.9,1.3-4.4,1.9
		c-0.2,0.1-0.4,0.1-0.6,0.2c-1,0.3-2,0.7-2.8,1.4c-1.1,0.9-1.8,2-2.2,3.4c0,0.1,0,0.2,0,0.2c0.1,0.1,0.2,0.1,0.2,0.1
		c1.2,0,2.4,0,3.6,0c1,0,1.9,0,2.9,0c1,0,2,0,3,0c1.5,0,3.1,0,4.6,0.1c0.6,0,1.3,0,1.9,0.1c0.1,0,0.3,0,0.4,0c-0.2,0-0.3,0-0.5,0
		C20.4,45,19,45,17.7,45c-1.3,0-2.6,0-3.9,0c-1.9,0-3.7,0-5.6,0c-0.9,0-1.7,0-2.6,0c-0.3,0-0.5,0-0.4-0.4c0.3-1.6,1.2-2.9,2.5-3.9
		c0.8-0.6,1.7-1,2.6-1.3c0.4-0.1,0.7-0.2,1.1-0.4c1.6-0.6,3.3-1.3,4.8-2.1c0.6-0.3,1.1-0.6,1.6-0.9C17.9,36.2,18,36.1,18.1,36.1
		L18.1,36.1z"/>
	<path class="st0" d="M20.5,16.7C20.5,16.7,20.4,16.7,20.5,16.7c-0.3-0.5-0.6-0.9-0.8-1.3c-0.1-0.1-0.1-0.2-0.1-0.3
		c0-0.5,0.2-0.9,0.6-1.2c0.1-0.1,0.2-0.2,0.4-0.2c0.1-0.6,0.3-1.1,0.7-1.6c0.7,0,1.4,0,2.1,0c0,0.1,0,0.1-0.1,0.2
		c-0.9,1.4-1.8,2.9-2.7,4.3C20.6,16.6,20.6,16.6,20.5,16.7z"/>
	<path class="st0" d="M19.5,23.3c0.4,0,3.6,0,3.8,0c0,0,0,0.1-0.1,0.1c-0.7,1.1-1.3,2.1-2,3.2c-0.2,0-0.3-0.1-0.5-0.3
		c-0.1-0.2-0.2-0.3-0.2-0.5c0-0.4-0.2-0.8-0.3-1.2c-0.1-0.2-0.1-0.3-0.2-0.5c-0.2-0.2-0.3-0.5-0.5-0.7
		C19.6,23.4,19.6,23.4,19.5,23.3z"/>
	<path class="st0" d="M26.8,16.8c-0.4-0.7-0.8-1.3-1.2-1.9c0.1,0,0.1-0.1,0.1-0.1c0.7,0,1.4,0,2.1,0c0,0,0.1,0,0.1,0
		c0,0,0,0.1,0,0.1C27.6,15.5,27.2,16.1,26.8,16.8z"/>
	<path class="st0" d="M29.5,28.1c-0.6,0-2.1,0-2.3,0c0.1-0.2,0.9-1.5,1.2-1.9c0,0,0.1,0.1,0.1,0.1c0.4,0.6,0.7,1.1,1,1.7
		C29.5,28,29.5,28,29.5,28.1z"/>
	<path class="st0" d="M33.4,34.6c0.4,0.6,0.8,1.3,1.2,1.9c-0.3,0-2,0-2.4,0c0,0,0-0.1,0-0.1C32.6,35.8,33,35.3,33.4,34.6
		C33.4,34.7,33.4,34.6,33.4,34.6z"/>
	<path class="st0" d="M22.1,36.3c-0.2-0.2-0.9-1.3-1.2-1.8c0,0,0-0.1-0.1-0.1c0.8,0,1.6,0,2.3,0c0,0,0,0,0,0c0,0,0,0,0,0
		c-0.2,0.3-0.4,0.6-0.5,0.9C22.5,35.6,22.3,35.9,22.1,36.3z"/>
	<path class="st0" d="M33.5,39c-0.4-0.6-0.8-1.2-1.1-1.8c0,0,0-0.1,0-0.1c0.3,0,2,0,2.3,0c-0.1,0.2-0.5,0.9-1.1,1.8
		C33.6,38.9,33.5,39,33.5,39z"/>
	<path class="st0" d="M38.8,41.6C38.8,41.5,38.8,41.5,38.8,41.6c0.4-0.6,0.7-1.2,1.1-1.8c0,0,0.1-0.1,0.1-0.1c0,0,0.1,0,0.1,0
		c0.4,0.6,0.8,1.2,1.1,1.8c0,0,0,0,0,0c0,0,0,0,0,0c-0.7,0-1.4,0-2.1,0C38.9,41.6,38.9,41.6,38.8,41.6z"/>
	<path class="st0" d="M26.9,12.4c0.2,0.2,1,1.5,1.2,1.9c-0.4,0-0.8,0-1.2,0c-0.4,0-0.8,0-1.2,0c-0.1-0.1,0-0.1,0-0.2
		c0.3-0.5,0.7-1.1,1-1.6C26.8,12.5,26.9,12.4,26.9,12.4z"/>
	<path class="st0" d="M30.8,34.2c0.3,0,1.4-0.1,2.1,0c0.1,0,0.1,0,0.2,0c0,0,0,0.1,0,0.1c-0.4,0.6-0.7,1.2-1.1,1.8
		c-0.1,0-0.1,0-0.1-0.1c-0.3-0.5-0.7-1.1-1-1.6C30.9,34.3,30.8,34.3,30.8,34.2z"/>
	<path class="st0" d="M25.5,37.3c0.2,0.2,0.6,0.9,1.1,1.7c0,0,0,0.1,0.1,0.2c-0.1,0-0.1,0-0.2,0c-0.8,0-1.8,0-2.1,0
		c0-0.2,0.1-0.3,0.2-0.4c0.1-0.1,0.1-0.2,0.2-0.4c0.1-0.1,0.2-0.3,0.2-0.4c0.1-0.1,0.1-0.2,0.2-0.4C25.4,37.6,25.4,37.5,25.5,37.3z"
		/>
	<path class="st0" d="M26.5,12c-0.1,0.2-0.7,1.3-1.1,1.9c0,0-0.1-0.1-0.1-0.1c-0.3-0.6-0.7-1.1-1-1.7c0,0,0-0.1,0-0.1
		c0,0,0.1,0,0.1,0C24.9,12,26.2,12,26.5,12z"/>
	<path class="st0" d="M27.4,12c0,0,0.1,0,0.1,0c0.4,0,1.9,0,2.2,0c0,0,0,0.1,0,0.1c-0.3,0.5-0.6,1-0.9,1.5c-0.1,0.1-0.1,0.2-0.2,0.3
		c0-0.1-0.1-0.1-0.1-0.1C27.8,13,27.4,12.3,27.4,12z"/>
	<path class="st0" d="M30.6,33.7c0.1-0.3,1.1-1.8,1.3-2c0.1,0.2,0.1,0.5,0.1,0.7c0.1,0.2,0.1,0.5,0.2,0.7c0.1,0.2,0.2,0.4,0.3,0.6
		c0,0-0.1,0-0.1,0C31.8,33.7,31.3,33.7,30.6,33.7C30.7,33.7,30.6,33.7,30.6,33.7z"/>
	<path class="st0" d="M21.6,33.8c0.4-0.5,0.5-1.1,0.7-1.7c0.2,0.2,0.9,1.3,1,1.6c0,0,0,0,0,0c0,0,0,0,0,0c0,0-0.1,0-0.1,0
		C22.6,33.8,22.2,33.8,21.6,33.8z"/>
	<path class="st0" d="M41.4,41c0.1-0.2,0.5-0.9,0.8-1.3c0.2,0.2,0.7,1,0.8,1.3C42.5,41.1,41.6,41.1,41.4,41z"/>
	<path class="st0" d="M40.3,39.2c0.1-0.3,0.3-0.5,0.5-0.8c0.3,0,1,0.4,1.9,0.8c0,0,0,0,0,0c0,0,0,0,0,0c-0.7,0-1.5,0-2.2,0
		C40.4,39.2,40.3,39.2,40.3,39.2z"/>
	<path class="st0" d="M41.9,39.6c-0.1,0.2-0.5,0.9-0.7,1.2c0,0-0.1,0-0.1-0.1c-0.2-0.4-0.5-0.8-0.7-1.1c0,0,0,0,0-0.1c0,0,0,0,0,0
		C40.9,39.6,41.3,39.6,41.9,39.6C41.8,39.6,41.8,39.6,41.9,39.6z"/>
	<path class="st0" d="M39.2,37.7c0.5,0.2,1,0.4,1.2,0.6c-0.1,0.2-0.3,0.4-0.4,0.7c0,0-0.1,0-0.1,0C39.7,38.5,39.4,38.1,39.2,37.7z"
		/>
	<path class="st0" d="M34.5,34.9c0.3,0.2,0.6,0.5,0.9,0.7c0,0.2-0.1,0.3-0.2,0.4c0,0-0.1,0-0.1,0C34.9,35.7,34.7,35.3,34.5,34.9z"/>
	<path class="st0" d="M18.1,36.1c0-0.1,0.2-0.1,0.3-0.2C18.3,36,18.3,36,18.1,36.1L18.1,36.1z"/>
</g>
</svg>
