<?xml version="1.0" encoding="utf-8"?>
<!-- Generator: Adobe Illustrator 25.2.3, SVG Export Plug-In . SVG Version: 6.00 Build 0)  -->
<svg version="1.1" id="Capa_1" xmlns="http://www.w3.org/2000/svg" xmlns:xlink="http://www.w3.org/1999/xlink" x="0px" y="0px"
	 viewBox="0 0 44 44" style="enable-background:new 0 0 44 44;" xml:space="preserve">
<style type="text/css">
	.st0{fill:#FFFFFF;}
</style>
<g>
	<path class="st0" d="M33,20.9c0,0.2,0,0.4,0,0.5c0,1.9,0,3.8,0,5.6c0,0.5-0.2,0.8-0.6,1.1c-3.4,2-6.8,3.9-10.2,5.9
		c-0.6,0.3-1,0.4-1.5,0c-0.1-0.1-0.2-0.1-0.3-0.2c0,0.6-0.3,0.9-0.8,1c-0.6,0.1-0.9,0.5-1.2,1.1c-0.4,0.8-0.4,1.4,0,2.1
		c0.2,0.3,0.1,0.6-0.2,0.9c-0.5,0.5-1.1,1.1-1.6,1.6c-0.3,0.3-0.6,0.4-0.9,0.2c-0.7-0.4-1.3-0.4-2,0c-0.6,0.3-1,0.6-1.2,1.3
		c-0.2,0.6-0.4,0.7-1,0.7c-0.7,0-1.4,0-2.1,0c-0.4,0-0.7-0.2-0.8-0.6c-0.2-0.8-0.6-1.1-1.4-1.4c-0.7-0.3-1.2-0.3-1.8,0
		c-0.5,0.3-0.7,0.2-1.1-0.2c-0.5-0.5-1-1-1.5-1.5c-0.3-0.3-0.4-0.6-0.2-1c0.4-0.7,0.3-1.3,0-2c-0.3-0.7-0.6-1-1.3-1.2
		c-0.6-0.2-0.7-0.4-0.7-1c0-0.7,0-1.4,0-2.1c0-0.4,0.2-0.7,0.6-0.8c0.8-0.2,1.1-0.7,1.4-1.4c0.3-0.6,0.3-1.1,0-1.8
		c-0.3-0.6-0.2-0.7,0.2-1.2c0.5-0.5,1-0.9,1.4-1.4c0.3-0.3,0.6-0.4,1-0.2c0.7,0.4,1.3,0.4,2,0c0.6-0.3,1-0.5,1.1-1.1
		C8.6,23.3,9,23,9.6,23c0.1,0,0.1,0,0.2,0c0-0.2,0-0.3,0-0.5c0-2.5,0-4.9,0-7.4c0-0.6,0.2-0.9,0.7-1.2c3.5-2,6.9-4,10.3-6
		c0.4-0.2,0.8-0.3,1.2,0c0.6,0.4,1.3,0.7,1.9,1.1c0.1,0.1,0.4,0.1,0.5,0c0.7-0.1,1-0.5,1.2-1.2c0.3-0.7,0.4-1.4,0-2.1
		c-0.2-0.3-0.1-0.7,0.2-0.9c0.5-0.5,1.1-1.1,1.6-1.6c0.3-0.3,0.6-0.4,0.9-0.2c0.7,0.5,1.3,0.4,2.1,0c0.6-0.3,1-0.6,1.1-1.2
		c0.2-0.7,0.3-0.7,1-0.7c0.7,0,1.4,0,2.1,0c0.4,0,0.7,0.2,0.8,0.5c0.2,0.8,0.7,1.2,1.4,1.5c0.6,0.2,1.1,0.3,1.7,0
		c0.6-0.3,0.8-0.3,1.3,0.2c0.5,0.5,0.9,0.9,1.4,1.4c0.3,0.3,0.4,0.6,0.2,1c-0.4,0.7-0.4,1.3,0,2c0.3,0.7,0.6,1,1.3,1.2
		c0.6,0.2,0.7,0.4,0.7,0.9c0,0.7,0,1.4,0,2.1c0,0.4-0.2,0.8-0.6,0.9c-0.7,0.2-1.1,0.6-1.4,1.3c-0.3,0.7-0.3,1.2,0.1,1.8
		c0.3,0.4,0.2,0.8-0.2,1.1c-0.5,0.5-1,1-1.5,1.5c-0.3,0.3-0.6,0.4-0.9,0.2c-0.7-0.4-1.3-0.4-2.1,0c-0.6,0.3-1,0.6-1.2,1.2
		c-0.2,0.6-0.4,0.7-1,0.7C34,20.9,33.5,20.9,33,20.9z M31.6,16c-0.1,0.1-0.2,0.1-0.3,0.1c-3,1.7-6,3.5-9,5.2
		c-0.2,0.1-0.2,0.3-0.2,0.5c0,3.4,0,6.8,0,10.2c0,0.1,0,0.2,0,0.4c0.1,0,0.1-0.1,0.2-0.1c3-1.7,6-3.5,9.1-5.2
		c0.2-0.1,0.2-0.3,0.2-0.5c0-2.6,0-5.2,0-7.8C31.6,17.9,31.6,17,31.6,16z M10.5,41.3c0.1,0,0.2,0,0.3,0c0.4,0.1,0.6-0.1,0.6-0.4
		c0-0.1,0.1-0.2,0.1-0.3c0.1-0.5,0.4-0.7,0.9-0.8c0.5-0.1,1-0.3,1.4-0.6c0.5-0.3,1-0.4,1.4,0c0.5,0.3,0.8,0.2,1.1-0.2
		c0.5-0.6,0.6-0.6,0.2-1.4c-0.2-0.4-0.2-0.8,0-1.2c0.3-0.5,0.5-1,0.6-1.5c0.1-0.5,0.4-0.8,0.9-0.9c0.1,0,0.3-0.1,0.4-0.1
		c0.3-0.1,0.4-0.2,0.3-0.5c0-0.1,0-0.2,0-0.3c0-0.9,0-0.9-0.8-1.2c-0.4-0.2-0.7-0.4-0.8-0.9c-0.1-0.5-0.4-1-0.6-1.5
		c-0.3-0.5-0.3-0.9,0-1.3c0.3-0.7,0.3-0.7-0.2-1.2c-0.5-0.5-0.6-0.6-1.2-0.2c-0.5,0.2-0.8,0.2-1.3,0c-0.5-0.3-1-0.5-1.5-0.6
		c-0.5-0.1-0.8-0.4-1-0.9c-0.3-0.8-0.1-0.7-1-0.7c-0.8,0-0.8,0-1.1,0.8C9.3,25.6,9,25.9,8.5,26c-0.5,0.2-1,0.4-1.5,0.6
		c-0.4,0.3-0.8,0.3-1.3,0c-0.7-0.3-0.7-0.3-1.2,0.2c-0.7,0.7-0.6,0.4-0.2,1.2c0.2,0.4,0.2,0.8,0,1.3c-0.3,0.5-0.5,1-0.6,1.5
		c-0.1,0.5-0.4,0.8-0.9,1c-0.7,0.2-0.7,0.3-0.7,1c0,0.8,0,0.8,0.7,1.1c0.5,0.2,0.7,0.4,0.8,0.9c0.1,0.5,0.3,1,0.6,1.4
		c0.3,0.5,0.4,1,0,1.5c-0.3,0.4-0.2,0.8,0.2,1c0,0,0,0,0,0c0.6,0.6,0.6,0.6,1.3,0.3c0.4-0.2,0.8-0.2,1.2,0c0.5,0.3,1,0.5,1.5,0.6
		c0.5,0.1,0.8,0.4,0.9,0.8C9.7,41.3,9.7,41.3,10.5,41.3z M28.5,11.8c-0.2-3.7,2.6-5.6,4.9-5.7c2.7,0,5,2.1,5.1,4.7
		c0.1,2.5-1.8,5.4-5.5,5.3c0,1.1,0,2.2,0,3.4c0.1,0,0.2,0,0.3,0c0.9,0,1,0,1.3-0.9c0.1-0.4,0.4-0.6,0.7-0.7c0.5-0.2,1-0.3,1.5-0.6
		c0.5-0.3,1-0.4,1.5,0c0.4,0.3,0.7,0.2,1.1-0.2c0.6-0.6,0.6-0.6,0.2-1.4c-0.2-0.3-0.2-0.6,0-1c0.3-0.6,0.5-1.3,0.8-1.9
		c0.1-0.2,0.3-0.5,0.5-0.6c0.3-0.2,0.7-0.2,0.9-0.4c0.2-0.3,0.1-0.7,0.1-1c0,0,0-0.1,0-0.1c0-0.2-0.1-0.3-0.3-0.4
		c-0.2-0.1-0.4-0.2-0.6-0.2c-0.3-0.1-0.5-0.3-0.6-0.7c-0.2-0.6-0.5-1.2-0.7-1.9c-0.1-0.3-0.1-0.6,0-0.8c0-0.2,0.1-0.4,0.3-0.6
		C40,5.8,40,5.7,39.8,5.5c-0.1-0.1-0.2-0.2-0.3-0.3c-0.6-0.6-0.6-0.6-1.3-0.2c-0.4,0.2-0.8,0.2-1.2-0.1c-0.5-0.3-1-0.5-1.5-0.6
		c-0.5-0.1-0.8-0.4-1-0.9c-0.2-0.7-0.3-0.7-1-0.7c-0.8,0-0.8,0-1,0.7c-0.1,0.4-0.3,0.7-0.7,0.8c-0.7,0.2-1.3,0.5-1.9,0.8
		c-0.2,0.1-0.5,0.1-0.8,0c-0.2,0-0.4-0.1-0.6-0.3c-0.3-0.2-0.5-0.1-0.7,0.1c-0.1,0.1-0.2,0.2-0.2,0.2C27,5.7,27,5.8,27.4,6.5
		c0.2,0.4,0.2,0.8-0.1,1.2c-0.2,0.4-0.4,0.8-0.5,1.2c-0.2,0.6-0.3,1.2-1.1,1.3C26.7,10.7,27.6,11.3,28.5,11.8z M11.2,16
		c0,2.4,0,4.7,0,7.1c0.7-0.1,1.2,0.1,1.3,0.8c0.1,0.6,0.6,0.8,1.1,1.1c0.8,0.4,1.4,0.4,2.1,0c0.3-0.2,0.7-0.1,0.9,0.2
		c0.5,0.5,1,1.1,1.6,1.6c0.3,0.3,0.4,0.6,0.2,0.9c-0.5,0.7-0.4,1.3,0,2.1c0.3,0.6,0.6,0.9,1.2,1.1c0.7,0.2,0.8,0.4,0.7,1.1
		c0,0.3,0.1,0.5,0.4,0.5c0,0,0-0.1,0-0.1c0-3.5,0-7,0-10.6c0-0.1,0-0.3-0.1-0.3c-0.8-0.5-1.5-0.9-2.4-1.4c0,0.2,0,0.4,0,0.5
		c0,1,0,2,0,3c0,0.9-0.5,1.2-1.3,0.8c-0.9-0.5-1.8-1.1-2.8-1.6c-0.4-0.2-0.5-0.5-0.5-0.9c0-1.3,0-2.7,0-4c0-0.1,0-0.3-0.1-0.4
		C12.8,16.9,12,16.5,11.2,16z M33.5,7.6c-2.6,0-4.3,2.6-3.3,4.9c0.1,0.2,0.3,0.4,0.5,0.6c0.6,0.4,1.2,0.7,1.8,1.1
		c0.1,0.1,0.3,0.2,0.4,0.3c0.1,0.3,0.4,0.3,0.6,0.3c2,0,3.6-1.6,3.6-3.6C37.1,9.2,35.5,7.5,33.5,7.6z M23.9,10.7
		c-0.8-0.5-1.5-0.9-2.2-1.3c-0.2-0.1-0.4-0.1-0.6,0c-2.9,1.7-5.9,3.4-8.8,5.1c-0.1,0.1-0.2,0.1-0.3,0.2c0.7,0.4,1.4,0.8,2.1,1.2
		c0.2,0.2,0.4,0.2,0.7,0c2.3-1.4,4.7-2.7,7.1-4.1C22.4,11.6,23.1,11.2,23.9,10.7z M18.9,18.9c0.8,0.4,1.5,0.8,2.2,1.3
		c0.2,0.1,0.4,0.1,0.7,0c2.9-1.7,5.9-3.4,8.8-5.1c0.1-0.1,0.2-0.1,0.4-0.2c-0.7-0.4-1.4-0.8-2.1-1.2c-0.3-0.2-0.4-0.2-0.7,0
		c-1.5,0.9-3,1.7-4.5,2.6C22,17,20.5,17.9,18.9,18.9z M27,12.6c-0.5-0.3-1-0.6-1.5-0.9c-0.2-0.1-0.4-0.1-0.6,0
		c-3,1.7-5.9,3.4-8.9,5.1C16,16.9,15.9,17,15.8,17c0.5,0.3,1,0.6,1.5,0.9c0.1,0.1,0.4,0.1,0.5,0c0.6-0.3,1.1-0.6,1.7-1
		C22,15.5,24.5,14,27,12.6z M16.8,22.6c0-1.1,0-2.2,0-3.2c0-0.1,0-0.2-0.1-0.2c-0.5-0.3-1.1-0.6-1.7-1c0,1.1,0,2.1,0,3.1
		c0,0.1,0.1,0.3,0.2,0.3C15.7,22,16.2,22.3,16.8,22.6z"/>
	<path class="st0" d="M19.1,4.4c-0.2-0.2-0.3-0.2-0.4-0.4c-0.2-0.3-0.2-0.6,0-0.8C19,2.9,19.3,2.8,19.6,3c0.7,0.5,1.4,1,2.1,1.6
		c0.3,0.2,0.3,0.7-0.1,1c-0.6,0.5-1.3,1-1.9,1.5C19.4,7.3,19,7.3,18.8,7c-0.2-0.3-0.2-0.6,0.1-0.9C18.9,6,19,5.9,19.1,5.8
		c-3.8,0-7.6,0-11.4,0c0,0.1,0,0.3,0,0.5c0,4.2,0,8.4,0,12.6c0,0.2,0,0.3,0,0.5c-0.1,0.4-0.3,0.6-0.6,0.6c-0.3,0-0.6-0.2-0.7-0.5
		c0-0.1-0.1-0.3-0.1-0.5c0-4.6,0-9.1,0-13.7c0-0.7,0.2-0.9,1-0.9c3.8,0,7.5,0,11.3,0C18.7,4.4,18.9,4.4,19.1,4.4z"/>
	<path class="st0" d="M35.1,36.4c0-0.2,0-0.4,0-0.5c0-4.2,0-8.3,0-12.5c0-0.1,0-0.3,0-0.4c0-0.5,0.3-0.8,0.7-0.8
		c0.4,0,0.7,0.3,0.7,0.8c0,1.5,0,2.9,0,4.4c0,3.1,0,6.2,0,9.4c0,0.8-0.2,1-1,1c-3.7,0-7.4,0-11.2,0c-0.2,0-0.3,0-0.5,0
		c0,0,0,0.1-0.1,0.1c0.1,0.1,0.2,0.1,0.3,0.2c0.3,0.3,0.3,0.6,0,0.9c-0.2,0.3-0.6,0.4-0.9,0.1c-0.7-0.5-1.3-1-2-1.5
		c-0.3-0.3-0.3-0.8,0.1-1.1c0.6-0.5,1.2-0.9,1.8-1.4c0.4-0.3,0.8-0.2,1,0.1c0.2,0.3,0.2,0.7-0.1,1c-0.1,0.1-0.1,0.1-0.2,0.2
		C27.5,36.4,31.3,36.4,35.1,36.4z"/>
	<path class="st0" d="M10.5,37.8c-2.7,0-5-2.2-5-5c0-2.7,2.2-5,5-5c2.7,0,5,2.3,5,5C15.5,35.6,13.2,37.8,10.5,37.8z M10.5,36.4
		c2,0,3.6-1.6,3.6-3.6c0-2-1.6-3.6-3.6-3.6c-2,0-3.6,1.6-3.6,3.6C6.9,34.8,8.5,36.4,10.5,36.4z"/>
</g>
</svg>
