<?xml version="1.0" encoding="utf-8"?>
<!-- Generator: Adobe Illustrator 25.2.3, SVG Export Plug-In . SVG Version: 6.00 Build 0)  -->
<svg version="1.1" id="Capa_1" xmlns="http://www.w3.org/2000/svg" xmlns:xlink="http://www.w3.org/1999/xlink" x="0px" y="0px"
	 viewBox="0 0 44 44" style="enable-background:new 0 0 44 44;" xml:space="preserve">
<style type="text/css">
	.st0{fill:#FFFFFF;}
</style>
<g>
	<path class="st0" d="M44,33.1c-0.4,1-1,1.6-2.1,1.6c-0.1,0-0.2,0.1-0.2,0.2c-0.1,0.1-0.1,0.3-0.2,0.4c-0.3,0.5-0.4,1,0.1,1.6
		c0.5,0.6,0.4,1.6-0.2,2.2c-0.4,0.4-0.8,0.9-1.3,1.3c-0.8,0.7-1.9,0.7-2.6,0c-0.2-0.2-0.4-0.3-0.7-0.1c0,0,0,0,0,0
		c-0.7,0.2-1.2,0.5-1.3,1.4c-0.1,0.8-0.9,1.3-1.7,1.3c-0.5,0-1.1,0-1.6,0c-1.1,0-1.9-0.7-2-1.8c0-0.4-0.2-0.5-0.5-0.6
		c-0.6-0.3-1.2-0.5-1.8,0.1c-0.6,0.5-1.5,0.3-2.1-0.2c-0.4-0.4-0.9-0.8-1.3-1.3c-0.7-0.8-0.7-1.9,0-2.6c0.2-0.2,0.2-0.4,0.1-0.7
		c-0.1-0.2-0.2-0.4-0.2-0.5c-0.3-0.6-0.3-0.6-1-0.6c-2.1,0-4.3,0-6.4,0c-0.6,0-0.9-0.3-1-0.8c-0.1-0.6,0.3-1,0.9-1c1.5,0,3,0,4.4,0
		c0.2,0,0.3,0,0.5,0c0-0.6,0-1.1,0-1.6c0-1.3,0.7-2,2-2.2c0.1,0,0.3-0.1,0.4-0.3c0.2-0.4,0.3-0.8,0.5-1.3c-0.1-0.1-0.2-0.2-0.3-0.3
		c-0.7-0.8-0.6-1.8,0-2.6c0.4-0.4,0.8-0.8,1.2-1.2c0.8-0.8,1.9-0.8,2.7,0c0.2,0.2,0.4,0.3,0.6,0.1c0.1-0.1,0.2-0.1,0.3-0.1
		c0.6-0.2,1-0.4,1-1.2c0.1-0.8,0.8-1.3,1.6-1.4c0.6-0.1,1.2-0.1,1.8,0c1.1,0,1.8,0.8,1.9,1.9c0,0.3,0.1,0.4,0.4,0.5
		c0.3,0.1,0.7,0.3,1,0.4c0.1,0,0.3,0,0.4,0c0.5-0.5,1-0.7,1.7-0.6c0-2.9,0-5.8,0-8.7c-12.4,0-24.9,0-37.4,0c0,0.2,0,0.3,0,0.5
		c0,5,0,10,0,15c0,0.5,0.1,1.1,0.3,1.6c0.4,1,1.2,1.6,2.4,1.6c1.5,0,3,0,4.6,0c0.7,0,1.1,0.3,1,0.9c0,0.5-0.4,0.9-1.1,0.9
		c-1.5,0-3-0.1-4.4,0c-2.6,0.1-4.1-1.9-4.4-3.8c0-0.1-0.1-0.2-0.1-0.3c0-8.5,0-17,0-25.5C0,5,0.1,4.9,0.1,4.7C0.5,2.5,2.1,1,4.2,1
		C15,1,25.9,1,36.7,1c1.1,0,2.1,0.4,2.8,1.2c1,1.1,1.4,2.3,1.4,3.8c0,5.9,0,11.7,0,17.6c0,0.4,0.1,0.7,0.4,1
		c0.8,0.8,0.8,1.9,0.1,2.8c-0.1,0.1-0.1,0.2-0.2,0.2c0.2,0.4,0.3,0.9,0.5,1.3c0.1,0.1,0.2,0.3,0.4,0.3c0.5,0,1,0.1,1.3,0.5
		c0.3,0.3,0.5,0.7,0.7,1C44,31.5,44,32.3,44,33.1z M39.1,12.5c0-0.5,0-0.9,0-1.3c0-1.9,0-3.8,0-5.7c0-1.7-1.2-2.7-2.8-2.7
		c-4.5,0-9.1,0-13.6,0c-6.1,0-12.2,0-18.3,0c-1,0-1.7,0.4-2.2,1.3C1.9,4.6,1.8,5.2,1.7,5.8c-0.1,2.1,0,4.3,0,6.4c0,0.1,0,0.2,0,0.3
		C14.2,12.5,26.6,12.5,39.1,12.5z M26.8,27.4c-0.1,0.3-0.2,0.5-0.3,0.7c-0.3,0.6-0.6,1.3-0.8,1.9c-0.2,0.7-0.4,0.9-1.2,0.9
		c-1,0-1,0-1,1c0,1,0,1,1,1c0.6,0,0.9,0.2,1.1,0.8c0.2,0.7,0.5,1.3,0.8,2c0.3,0.6,0.3,0.9-0.2,1.4c-0.7,0.7-0.7,0.7,0,1.4
		c0.7,0.7,0.7,0.7,1.4,0c0.5-0.5,0.8-0.5,1.4-0.2c0.6,0.3,1.2,0.6,1.9,0.8c0.8,0.3,0.9,0.4,0.9,1.3c0,1-0.1,0.9,0.9,0.9
		c1.2,0,1.1,0.2,1.1-1.1c0-0.6,0.2-0.8,0.8-1c0.7-0.2,1.4-0.5,2-0.8c0.6-0.3,0.9-0.3,1.4,0.2c0.7,0.7,0.7,0.7,1.4,0
		c0.7-0.7,0.7-0.7,0-1.4c-0.5-0.5-0.5-0.8-0.2-1.4c0.3-0.6,0.6-1.2,0.8-1.9c0.3-0.7,0.4-0.9,1.2-0.9c1,0,0.9,0.1,0.9-0.9
		c0-1.1,0-1.1-1-1.1c-0.6,0-0.8-0.2-1-0.8c-0.2-0.7-0.5-1.3-0.8-2c-0.3-0.7-0.3-0.9,0.2-1.5c0.8-0.8,0.7-0.5,0-1.3
		c-0.7-0.7-0.7-0.7-1.5,0c-0.5,0.4-0.8,0.4-1.3,0.2c-0.7-0.3-1.3-0.6-2-0.8c-0.7-0.2-0.9-0.4-0.9-1.2c0-0.9,0-0.9-0.9-0.9
		c-1,0-1,0-1,1c0,0.6-0.2,0.8-0.8,1c-0.7,0.2-1.4,0.5-2,0.8c-0.6,0.3-0.9,0.3-1.3-0.2c-0.7-0.7-0.7-0.7-1.5,0
		c-0.6,0.6-0.6,0.6,0,1.3C26.5,26.9,26.6,27.2,26.8,27.4z"/>
	<path class="st0" d="M19.4,23.6c-0.7-0.8-1.3-1.5-2-2.2c-0.4-0.5-0.4-1,0-1.4c0.4-0.3,0.9-0.3,1.3,0.2c0.7,0.8,1.5,1.7,2.2,2.5
		c0.5,0.6,0.5,1.2,0,1.8c-0.7,0.8-1.5,1.7-2.3,2.5c-0.4,0.4-0.9,0.5-1.3,0.1c-0.4-0.3-0.4-0.9,0-1.3C18,25.1,18.7,24.3,19.4,23.6z"
		/>
	<path class="st0" d="M6.8,23.6c0.7,0.7,1.3,1.5,1.9,2.2C8.9,25.9,9,26,9.1,26.2c0.2,0.4,0,0.8-0.4,1c-0.3,0.2-0.8,0.2-1.1-0.2
		c-0.5-0.5-0.9-1-1.3-1.5c-0.4-0.4-0.7-0.8-1.1-1.2c-0.4-0.5-0.5-1.1,0-1.6C6,21.9,6.8,21,7.6,20.1C8,19.7,8.5,19.6,8.9,20
		c0.4,0.3,0.4,0.9,0,1.3c-0.3,0.4-0.7,0.8-1,1.2C7.5,22.8,7.2,23.1,6.8,23.6z"/>
	<path class="st0" d="M14.8,20.1c-0.2,0.7-0.4,1.5-0.5,2.3c-0.4,1.6-0.8,3.2-1.1,4.8c0,0.1,0,0.1,0,0.2c-0.2,0.5-0.6,0.8-1,0.7
		c-0.5-0.1-0.7-0.5-0.6-1.1c0.4-1.5,0.7-3.1,1.1-4.6c0.2-0.9,0.4-1.7,0.6-2.6c0.1-0.4,0.5-0.7,1-0.6C14.5,19.2,14.8,19.5,14.8,20.1z
		"/>
	<path class="st0" d="M13,32.9c0.5,0,0.9,0.4,0.9,0.9c0,0.5-0.4,0.9-0.9,0.9c-0.5,0-0.8-0.4-0.9-0.8C12.1,33.3,12.5,32.9,13,32.9z"
		/>
	<path class="st0" d="M29.6,10.6c-1.3,0-2.6,0-4,0c-1.5,0-2.6-1.1-2.8-2.6c-0.2-1.4,0.8-2.7,2.1-3.1c0.2-0.1,0.5-0.1,0.7-0.1
		c2.6,0,5.2,0,7.8,0c1.4,0,2.5,1,2.8,2.3c0.3,1.2-0.3,2.5-1.4,3.1c-0.5,0.2-1,0.4-1.5,0.4C32.1,10.6,30.9,10.6,29.6,10.6
		C29.6,10.6,29.6,10.6,29.6,10.6z M29.6,6.5c-1.3,0-2.5,0-3.8,0c-0.7,0-1.2,0.5-1.2,1.2c0,0.6,0.5,1.2,1.2,1.2c2.5,0,5.1,0,7.6,0
		c0.5,0,0.9-0.2,1.1-0.7c0.4-0.8-0.2-1.6-1.2-1.6C32.1,6.5,30.9,6.5,29.6,6.5z"/>
	<path class="st0" d="M18.5,7.7c0,1.6-1.3,2.9-2.9,2.9c-1.6,0-2.9-1.3-2.9-2.9c0-1.6,1.3-2.9,2.9-2.9C17.2,4.7,18.5,6.1,18.5,7.7z
		 M15.6,6.5c-0.7,0-1.2,0.5-1.2,1.2c0,0.6,0.5,1.1,1.1,1.2c0.6,0,1.2-0.5,1.2-1.2C16.8,7,16.2,6.5,15.6,6.5z"/>
	<path class="st0" d="M10.9,7.6c0,1.6-1.3,2.9-2.9,2.9c-1.6,0-2.9-1.3-2.9-2.9c0-1.6,1.3-2.9,2.9-2.9C9.6,4.7,10.9,6,10.9,7.6z
		 M6.9,7.6c0,0.6,0.5,1.2,1.2,1.2c0.6,0,1.2-0.5,1.2-1.2c0-0.6-0.5-1.1-1.1-1.2C7.4,6.5,6.9,7,6.9,7.6z"/>
	<path class="st0" d="M27.6,31.9c0-2.9,2.4-5.3,5.3-5.3c2.9,0,5.3,2.4,5.3,5.3c0,2.9-2.4,5.3-5.3,5.3C30,37.2,27.6,34.8,27.6,31.9z
		 M29.4,31.9c0,2,1.6,3.6,3.6,3.6c1.9,0,3.6-1.6,3.6-3.6c0-2-1.6-3.5-3.6-3.6C31,28.3,29.4,29.9,29.4,31.9z"/>
</g>
</svg>
