<?xml version="1.0" encoding="utf-8"?>
<!-- Generator: Adobe Illustrator 25.2.3, SVG Export Plug-In . SVG Version: 6.00 Build 0)  -->
<svg version="1.1" id="Capa_1" xmlns="http://www.w3.org/2000/svg" xmlns:xlink="http://www.w3.org/1999/xlink" x="0px" y="0px"
	 viewBox="0 0 44 44" style="enable-background:new 0 0 44 44;" xml:space="preserve">
<style type="text/css">
	.st0{fill:#FFFFFF;}
</style>
<g>
	<path class="st0" d="M44,33.9c-0.2,0.3-0.5,0.7-0.7,1c-2.6,2.7-5.3,5.3-7.9,8c-0.8,0.8-1.5,0.8-2.4,0c-0.9-0.9-1.7-1.7-2.6-2.6
		c-0.7-0.7-0.8-1.3-0.2-2.2c-0.5-0.7-1.2-1.1-2.1-1.2c-0.8-0.1-1.5-0.4-2.1-0.9c-0.7-0.7-1.5-1.4-2.2-2.1c-0.3-0.3-0.3-0.7-0.1-1
		c0.3-0.3,0.7-0.2,1,0.1c0.7,0.6,1.3,1.3,2,1.9c0.4,0.4,1,0.7,1.6,0.8c1.2,0.1,2.1,0.6,2.8,1.5c2.2-2.2,4.4-4.4,6.6-6.6
		c-0.1-0.1-0.2-0.2-0.3-0.3c-0.6-0.7-0.9-1.5-1-2.4c0-0.6,0-1.3,0-1.9c0-0.7-0.2-1.3-0.7-1.7c-1-1-1.9-2-2.9-2.9
		c-0.7-0.7-1.8-0.9-2.6-0.3c0.4,0.4,0.9,0.8,1.3,1.3c0.1,0.1,0.2,0.2,0.3,0.3c0.3,0.3,0.3,0.7,0,0.9c-0.2,0.2-0.6,0.2-0.9,0
		c-0.5-0.5-1-1-1.6-1.5c-0.1-0.1-0.2-0.2-0.4-0.4c0,0.3,0,0.6,0,0.8c0,1.1-0.1,2.2,0,3.2c0.1,1.8-1.2,3.1-3.1,2.5c0,0.5,0,1,0,1.5
		c-0.1,1.4-1.1,2.4-2.5,2.2c-0.2,0-0.4-0.1-0.6-0.1c0,0.1-0.1,0.2-0.1,0.3c-0.3,0.4-0.6,0.9-1,1.1c-0.5,0.3-0.9,0.7-1.4,1.1
		c-0.6,0.6-1.2,1.2-1.9,1.9c-0.7,0.7-1.5,1.1-2.4,1.2c-0.9,0.1-1.5,0.5-2,1.1c0.6,0.9,0.5,1.4-0.3,2.2c-0.9,0.9-1.8,1.8-2.7,2.7
		c-0.7,0.7-1.4,0.7-2.1,0C7,41.6,5.2,39.8,3.4,38C3,37.6,3,37.2,3.3,37c0.3-0.3,0.7-0.2,1,0.2c1.7,1.7,3.5,3.5,5.2,5.2
		c0.1,0.1,0.2,0.3,0.3,0.4c1.1-1.1,2.1-2.1,3.1-3.2c-2.8-2.8-5.7-5.7-8.5-8.5c-1,1-2,2-3.1,3.1c0.3,0.3,0.6,0.6,0.9,0.9
		c0.4,0.3,0.4,0.7,0.1,1s-0.7,0.3-1-0.1c-0.5-0.5-0.9-1-1.3-1.5c0-0.2,0-0.5,0-0.7c0.3-0.3,0.5-0.7,0.8-1c0.8-0.8,1.6-1.6,2.4-2.4
		C4,29.1,4.5,29,5.4,29.6c0.6-0.5,0.9-1.1,0.9-1.9s0-1.6,0-2.4c0.1-0.8,0.4-1.6,1-2.2c1-1,2-2,3-3c0.6-0.6,1.3-0.9,2.2-1
		c-0.4-0.9-0.4-1.7-0.4-2.6c0-1,0-2,0-3c0-1.1,0.4-2,1.1-2.7c0.4-0.4,0.8-0.8,1.2-1.2c0.5-0.6,0.8-1.2,0.7-2.1
		c-0.1,0-0.2-0.1-0.3-0.1c-0.7-0.1-1.1-0.6-1.1-1.3c0-1.4,0-2.9,0-4.3c0-0.8,0.6-1.3,1.4-1.4c4,0,8,0,12,0c0.8,0,1.4,0.6,1.4,1.4
		c0,1.3,0,2.5,0,3.8c0,1.2-0.2,1.5-1.4,1.9c-0.1,0.8,0,1.5,0.5,2.1c0.7,0.8,1,1.8,1,2.9c0,2.2,0,4.4,0,6.7c0,0.2,0.1,0.4,0.2,0.7
		c0.9-0.5,1.7-0.8,2.7-0.6c0.7,0.1,1.3,0.4,1.8,1c1,1,2,2,2.9,2.9c0.7,0.7,1,1.5,1.1,2.4c0.6,0,1,0.2,0.9,0.7c0,0.4-0.3,0.7-0.9,0.6
		c-0.1,1.1,0,2,0.9,2.8c0.2-0.1,0.3-0.2,0.5-0.3c0.5-0.2,1.1-0.1,1.5,0.3c1,1,2,2,3,3c0.2,0.2,0.3,0.4,0.4,0.6
		C44,33.5,44,33.7,44,33.9z M15.1,19.7c0-0.2,0-0.3,0-0.5c0-0.6,0-1.2,0-1.8c0-0.4,0.3-0.6,0.7-0.6c0.4,0,0.6,0.3,0.6,0.6
		c0,0.1,0,0.3,0,0.4c0,3.8,0,7.5,0,11.3c0,0.8,0.3,1.2,0.9,1.2s0.9-0.4,0.9-1.2c0-3.3,0-6.7,0-10c0-0.2,0-0.3,0-0.5
		c0.1-0.3,0.3-0.5,0.6-0.5c0.3,0,0.6,0.2,0.6,0.6c0,0.2,0,0.3,0,0.5c0,3.9,0,7.8,0,11.7c0,0.7,0.4,1.1,0.9,1.1
		c0.6,0,0.9-0.4,0.9-1.1c0-0.6,0-1.1,0-1.7c0-3.3,0-6.7,0-10c0-0.1,0-0.3,0-0.4c0-0.4,0.3-0.7,0.7-0.7c0.4,0,0.6,0.3,0.6,0.7
		c0,0.1,0,0.3,0,0.4c0,3.3,0,6.6,0,9.9c0,0.1,0,0.3,0,0.4c0,0.4,0.4,0.8,0.8,0.8c0.5,0,0.9-0.2,1-0.7c0-0.2,0-0.4,0-0.6
		c0-3.3,0-6.6,0-9.9c0-0.2,0-0.3,0-0.5c0-0.3,0.3-0.5,0.6-0.5c0.3,0,0.6,0.2,0.7,0.5c0,0.2,0,0.3,0,0.5c0,2.1,0,4.3,0,6.4
		c0,0.2,0,0.3,0,0.5c0.1,0.4,0.4,0.7,0.8,0.8c0.4,0,0.8-0.2,0.9-0.6c0.1-0.2,0.1-0.4,0.1-0.6c0-4.4,0-8.8,0-13.1
		c0-0.7-0.2-1.4-0.7-1.9C26.3,9.8,26,9,26,8.1c0-0.2,0-0.4,0-0.6c-0.2,0-0.4,0-0.5,0c-1.4,0-2.8,0-4.2,0c-0.2,0-0.3,0-0.5-0.1
		c-0.3-0.1-0.5-0.4-0.4-0.6s0.3-0.4,0.5-0.6c0.1-0.1,0.3,0,0.5,0c1.8,0,3.7,0,5.5,0c0.2,0,0.3,0,0.5,0c0-1.5,0-2.9,0-4.4
		c-4.1,0-8.1,0-12.1,0c0,1.5,0,2.9,0,4.4c0.2,0,0.3,0,0.5,0c0.7,0,1.4,0,2.1,0c0.5,0,0.8,0.2,0.8,0.6s-0.3,0.6-0.8,0.7
		c-0.4,0-0.7,0-1.1,0c0,0.1,0,0.2,0,0.3c0,1.2-0.5,2.2-1.3,3c-0.4,0.4-0.7,0.7-1.1,1.1c-0.4,0.4-0.7,0.9-0.7,1.4c0,1.5,0,3.1,0,4.6
		C13.6,18.8,14.3,19.6,15.1,19.7z M19.3,33c-0.4-0.5-0.7-1-1.1-1.5c-1.7,0.5-3-0.4-3-2.3c0-2.4,0-4.8,0-7.2c0-0.2,0-0.3,0-0.6
		C14.5,22,14,22.5,13.5,23c-0.1,0.1-0.2,0.2-0.3,0.3c-0.3,0.3-0.7,0.3-0.9,0c-0.3-0.3-0.3-0.6,0-0.9c0.5-0.5,1.1-1.1,1.6-1.6
		c-0.9-0.5-1.9-0.4-2.6,0.3c-1,1-1.9,1.9-2.9,2.9c-0.5,0.5-0.7,1.1-0.7,1.7s0,1.3,0,1.9c0,1-0.4,1.8-1,2.5c-0.1,0.1-0.2,0.2-0.2,0.3
		c2.2,2.2,4.4,4.4,6.6,6.6c0.8-1,1.9-1.4,3.1-1.5c0.4,0,0.8-0.3,1.1-0.6C18,34.4,18.6,33.7,19.3,33z M39.6,30.6
		c-2.9,2.8-5.7,5.7-8.6,8.5c1,1,2,2,3,3c2.8-2.8,5.7-5.7,8.5-8.5C41.6,32.6,40.6,31.6,39.6,30.6z"/>
	<path class="st0" d="M35.9,13.3c0,0.3-0.3,0.6-0.6,0.7c-0.3,0-0.7-0.3-0.7-0.6s0.3-0.6,0.6-0.7C35.6,12.7,35.9,13,35.9,13.3z"/>
	<path class="st0" d="M6.7,15.2c0,0.4-0.3,0.7-0.6,0.6c-0.3,0-0.6-0.3-0.6-0.6s0.3-0.7,0.7-0.7C6.4,14.5,6.7,14.8,6.7,15.2z"/>
	<path class="st0" d="M11.1,8.7c0.4,0,0.6,0.3,0.6,0.7c0,0.3-0.3,0.6-0.6,0.6s-0.7-0.3-0.7-0.6C10.4,8.9,10.7,8.7,11.1,8.7z"/>
	<path class="st0" d="M5.7,17.5c0,0.4-0.3,0.7-0.6,0.7c-0.3,0-0.6-0.3-0.6-0.6c0-0.4,0.3-0.7,0.6-0.7C5.4,16.9,5.7,17.2,5.7,17.5z"
		/>
	<path class="st0" d="M36.6,16.3c-0.4,0-0.7-0.3-0.7-0.6s0.3-0.6,0.6-0.6c0.4,0,0.7,0.3,0.7,0.6C37.3,16,37,16.3,36.6,16.3z"/>
	<path class="st0" d="M8.1,13c0,0.4-0.3,0.7-0.7,0.7c-0.3,0-0.6-0.3-0.6-0.6c0-0.4,0.3-0.7,0.7-0.6C7.8,12.3,8.1,12.6,8.1,13z"/>
	<path class="st0" d="M32.2,9.4c0,0.3-0.3,0.6-0.6,0.6c-0.4,0-0.7-0.3-0.7-0.6s0.3-0.6,0.6-0.6C31.9,8.8,32.2,9.1,32.2,9.4z"/>
	<path class="st0" d="M38.1,20.2c0.4,0,0.7,0.3,0.7,0.6c0,0.4-0.3,0.6-0.7,0.6c-0.3,0-0.6-0.3-0.6-0.6S37.7,20.2,38.1,20.2z"/>
	<path class="st0" d="M5,25.2c0,0.4-0.3,0.6-0.6,0.6c-0.4,0-0.7-0.3-0.7-0.6c0-0.3,0.3-0.6,0.6-0.6C4.7,24.6,5,24.9,5,25.2z"/>
	<path class="st0" d="M4.9,28.4c-0.3,0-0.6-0.3-0.7-0.6c0-0.4,0.2-0.7,0.6-0.7s0.7,0.3,0.7,0.6C5.6,28.1,5.3,28.4,4.9,28.4z"/>
	<path class="st0" d="M38.2,18.2c0,0.4-0.3,0.6-0.7,0.6s-0.6-0.3-0.6-0.7c0-0.3,0.3-0.6,0.6-0.6C37.9,17.5,38.2,17.9,38.2,18.2z"/>
	<path class="st0" d="M34.2,11.2c0,0.4-0.3,0.6-0.6,0.6c-0.4,0-0.7-0.3-0.7-0.6s0.3-0.6,0.6-0.6C33.9,10.6,34.2,10.9,34.2,11.2z"/>
	<path class="st0" d="M4.5,19.4c0.4,0,0.6,0.3,0.6,0.7c0,0.4-0.3,0.6-0.6,0.6c-0.4,0-0.6-0.3-0.6-0.6C3.8,19.7,4.1,19.4,4.5,19.4z"
		/>
	<path class="st0" d="M4.2,23.3c-0.4,0-0.6-0.3-0.6-0.6c0-0.4,0.3-0.7,0.6-0.7s0.6,0.3,0.6,0.6C4.9,23,4.6,23.3,4.2,23.3z"/>
	<path class="st0" d="M30,7.9c0,0.3-0.3,0.6-0.6,0.6c-0.4,0-0.7-0.2-0.7-0.6c0-0.3,0.3-0.6,0.6-0.7C29.6,7.3,29.9,7.6,30,7.9z"/>
	<path class="st0" d="M9.7,11c0,0.4-0.3,0.7-0.6,0.7s-0.6-0.3-0.6-0.6c0-0.4,0.3-0.7,0.6-0.7C9.5,10.4,9.7,10.6,9.7,11z"/>
	<path class="st0" d="M38.2,24.2c-0.3,0-0.6-0.3-0.6-0.6c0-0.4,0.3-0.7,0.7-0.7s0.6,0.3,0.6,0.7C38.8,23.9,38.6,24.2,38.2,24.2z"/>
	<path class="st0" d="M13.9,7.9c0,0.4-0.3,0.7-0.6,0.7S12.7,8.3,12.7,8c0-0.4,0.3-0.7,0.6-0.7C13.6,7.3,13.9,7.5,13.9,7.9z"/>
	<path class="st0" d="M10.7,39.3c0,0.4-0.3,0.7-0.7,0.7s-0.7-0.3-0.7-0.7s0.3-0.7,0.7-0.7S10.7,38.9,10.7,39.3z"/>
	<path class="st0" d="M20.5,40.6c-0.4,0-0.7-0.3-0.6-0.7c0-0.3,0.3-0.6,0.6-0.6c0.4,0,0.6,0.3,0.6,0.7
		C21.1,40.3,20.9,40.6,20.5,40.6z"/>
	<path class="st0" d="M23.1,40.5c-0.3,0-0.6-0.3-0.6-0.6c0-0.4,0.3-0.7,0.6-0.7c0.3,0,0.6,0.3,0.6,0.6
		C23.7,40.2,23.4,40.5,23.1,40.5z"/>
	<path class="st0" d="M27.4,38.5c0-0.4,0.3-0.7,0.7-0.6c0.3,0,0.6,0.3,0.6,0.6c0,0.4-0.3,0.7-0.7,0.6C27.7,39.2,27.4,38.9,27.4,38.5
		z"/>
	<path class="st0" d="M26.2,39.4c0,0.4-0.3,0.7-0.7,0.6c-0.3,0-0.6-0.3-0.6-0.7s0.3-0.6,0.7-0.6C26,38.7,26.2,39,26.2,39.4z"/>
	<path class="st0" d="M16.1,38.9c0,0.4-0.3,0.7-0.7,0.7c-0.3,0-0.6-0.3-0.6-0.6c0-0.4,0.3-0.6,0.6-0.6
		C15.8,38.3,16.1,38.6,16.1,38.9z"/>
	<path class="st0" d="M18,40.3c-0.4,0-0.7-0.3-0.7-0.6s0.3-0.6,0.6-0.6c0.4,0,0.6,0.2,0.7,0.6C18.6,39.9,18.3,40.3,18,40.3z"/>
	<path class="st0" d="M17.3,3.3C17.7,3.3,18,3.6,18,4s-0.3,0.7-0.7,0.7c-0.4,0-0.7-0.3-0.7-0.7C16.7,3.6,17,3.3,17.3,3.3z"/>
	<path class="st0" d="M40.5,33.4c0,0.4-0.3,0.7-0.7,0.7s-0.7-0.3-0.7-0.7s0.3-0.7,0.7-0.7S40.5,33,40.5,33.4z"/>
</g>
</svg>
