<?xml version="1.0" encoding="utf-8"?>
<!-- Generator: Adobe Illustrator 25.2.3, SVG Export Plug-In . SVG Version: 6.00 Build 0)  -->
<svg version="1.1" id="Capa_1" xmlns="http://www.w3.org/2000/svg" xmlns:xlink="http://www.w3.org/1999/xlink" x="0px" y="0px"
	 viewBox="0 0 44 44" style="enable-background:new 0 0 44 44;" xml:space="preserve">
<style type="text/css">
	.st0{fill:#FFFFFF;}
</style>
<g>
	<path class="st0" d="M22.5,0c0.2,0.1,0.5,0.1,0.7,0.2c1.6,0.6,2.6,2.3,2.2,4c0,0.1,0,0.2-0.1,0.4c3.4,1.9,6.7,3.9,10.1,5.8
		c0.2-0.1,0.3-0.3,0.4-0.4c1.2-0.8,2.5-1,3.8-0.3s2,1.8,1.9,3.3c-0.1,1.3-1,2.6-2.3,3c-0.4,0.1-0.5,0.4-0.5,0.8c0,3.5,0,7.1,0,10.6
		c0,0.3,0.1,0.5,0.4,0.6c1.3,0.4,2.3,1.6,2.4,3c0.1,1.5-0.6,2.8-1.9,3.4c-1.3,0.6-2.8,0.4-3.8-0.5c-0.3-0.3-0.5-0.2-0.8-0.1
		c-3.1,1.8-6.2,3.6-9.3,5.4c-0.1,0.1-0.2,0.1-0.4,0.2c0.2,0.7,0.3,1.4,0,2.1c-0.4,1.2-1.2,2-2.5,2.4c-0.1,0-0.2,0.1-0.3,0.1
		c-0.3,0-0.7,0-1,0c-0.3-0.1-0.7-0.2-1-0.3c-1.5-0.7-2.3-2.3-1.9-3.9c0-0.1,0-0.2,0.1-0.4c-0.7-0.4-1.4-0.8-2.1-1.2
		c-2.5-1.5-5.1-2.9-7.6-4.4c-0.2-0.1-0.4-0.2-0.6,0.1c-1.1,1-2.6,1.2-3.9,0.6c-1.3-0.6-2-2-1.9-3.4s1.1-2.6,2.5-3
		c0.3-0.1,0.3-0.2,0.3-0.4c0-3.7,0-7.3,0-11c0-0.2,0-0.4-0.3-0.4c-1.5-0.4-2.4-1.6-2.5-3c-0.1-1.5,0.7-2.8,2-3.5
		C5.9,9,7.3,9.2,8.5,10.3c0,0,0.1,0.1,0.2,0.1c3.4-1.9,6.7-3.9,10.1-5.8c-0.2-0.7-0.3-1.4,0-2.1c0.4-1.3,1.3-2,2.5-2.4
		c0.1,0,0.2-0.1,0.3-0.1C21.8,0,22.2,0,22.5,0z M35.2,28.9c0.7-0.4,1.3-0.7,1.9-1c0.1-0.1,0.2-0.2,0.2-0.4c0-3.7,0-7.4,0-11.1
		c0-0.2-0.1-0.3-0.3-0.4c-0.5-0.2-1-0.5-1.4-0.8c-0.2-0.2-0.3-0.2-0.5,0c-0.6,0.3-1.1,0.7-1.7,1c-0.4,0.3-0.8,0.2-1-0.2
		c-0.2-0.3-0.1-0.7,0.4-1c0.6-0.3,1.1-0.7,1.7-1c0.2-0.1,0.3-0.3,0.2-0.5c-0.1-0.5-0.1-1.1,0-1.6c0-0.3,0-0.4-0.3-0.6
		c-2.5-1.5-5.1-2.9-7.6-4.4c-0.7-0.4-1.4-0.8-2-1.2c-0.7,0.4-1.3,0.7-1.9,1c-0.1,0.1-0.2,0.2-0.2,0.4c0,0.6,0,1.2,0,1.8
		c0,0.7-0.2,1-0.7,1c-0.4,0-0.6-0.3-0.6-1c0-0.6,0-1.2,0-1.8c0-0.1-0.1-0.3-0.2-0.3c-0.6-0.3-1.2-0.7-2-1c-3.2,1.8-6.4,3.7-9.7,5.6
		c-0.1,0.1-0.2,0.2-0.2,0.4c0,0.6,0,1.2,0,1.8c0,0.1,0.1,0.3,0.2,0.4c0.6,0.4,1.2,0.7,1.8,1c0.4,0.2,0.5,0.6,0.4,0.9
		c-0.2,0.4-0.6,0.4-1,0.2c-0.6-0.3-1.1-0.6-1.7-1C8.8,15,8.6,15,8.4,15.2C7.9,15.5,7.5,15.8,7,16c-0.3,0.1-0.4,0.2-0.4,0.5
		c0,3.6,0,7.2,0,10.9c0,0.1,0,0.3,0,0.4l0.1-0.1c0.6,0.4,1.2,0.8,1.8,1.1c0.1,0.1,0.3,0,0.4,0c0.6-0.3,1.2-0.7,1.8-1
		c0.4-0.2,0.8-0.2,1,0.2c0.2,0.3,0.1,0.7-0.4,0.9c-0.6,0.3-1.2,0.7-1.7,1c-0.2,0.1-0.2,0.2-0.2,0.5c0,0.5,0.1,1.1,0,1.6
		c0,0.3,0,0.5,0.3,0.6c3.1,1.8,6.2,3.6,9.3,5.4c0.1,0.1,0.3,0.1,0.4,0.2v-0.1c0.6-0.3,1.2-0.6,1.8-0.9c0.2-0.1,0.3-0.2,0.3-0.4
		c0-0.7,0-1.4,0-2.1c0-0.3,0.1-0.6,0.5-0.7c0.4-0.1,0.8,0.2,0.8,0.7c0,0.7,0,1.4,0,2.1c0,0.1,0.1,0.3,0.2,0.3c0.6,0.3,1.3,0.7,2,1
		c3.2-1.8,6.4-3.7,9.7-5.6c0.2-0.1,0.2-0.3,0.2-0.5c0-0.5-0.1-1.1,0-1.6c0-0.3,0-0.5-0.3-0.6c-0.6-0.3-1.2-0.7-1.7-1
		c-0.4-0.3-0.5-0.9,0-1.1c0.2-0.1,0.5-0.1,0.7,0C34,28.2,34.7,28.6,35.2,28.9z M24.2,3.5c0-1.2-1-2.2-2.2-2.2s-2.2,1-2.2,2.1
		c0,1.2,0.9,2.2,2.1,2.2C23.2,5.7,24.2,4.7,24.2,3.5z M38,33.4c1.2,0,2.2-1,2.2-2.2s-1-2.1-2.2-2.2c-1.2,0-2.2,1-2.2,2.2
		C35.8,32.5,36.8,33.4,38,33.4z M24.2,40.5c0-1.2-1-2.2-2.2-2.2s-2.1,1-2.2,2.2c0,1.2,0.9,2.2,2.2,2.2
		C23.2,42.7,24.2,41.7,24.2,40.5z M6,33.4c1.2,0,2.2-1,2.2-2.2S7.2,29.1,6,29c-1.2,0-2.2,1-2.2,2.2C3.8,32.5,4.8,33.4,6,33.4z
		 M6,10.6c-1.2,0-2.2,1-2.2,2.2S4.8,15,6,15s2.1-1,2.2-2.2C8.2,11.6,7.2,10.6,6,10.6z M40.2,12.7c0-1.2-1-2.2-2.2-2.2
		s-2.2,1-2.2,2.2s1,2.2,2.2,2.2S40.2,14,40.2,12.7z"/>
	<path class="st0" d="M14.7,18.3c-0.6-0.6-1-1.4-1.1-2.2c-0.3-1.9,0.8-3.8,2.7-4.4c1.9-0.6,3.9,0.2,4.8,2c0.2,0.4,0.4,0.4,0.7,0.4
		c0.7,0.1,1-0.2,1.4-0.8c1.2-2,3.9-2.4,5.7-1s2.1,4,0.6,5.8c-0.1,0.1-0.1,0.2-0.2,0.3c0.1,0.1,0.2,0.2,0.3,0.2
		c1.6,1.1,2.4,2.6,2.5,4.5c0,0.5-0.2,0.8-0.6,0.9c-0.4,0-0.6-0.3-0.7-0.8c-0.1-1.7-0.9-3-2.5-3.8c-0.2-0.1-0.4-0.1-0.6,0
		c-0.6,0-1.1,0.1-1.7,0.2c-0.1,0-0.3,0.1-0.4,0.2c-0.3,0.4-0.5,0.8-0.8,1.2c0.1,0.1,0.2,0.1,0.3,0.2c1.5,1.1,2.4,2.6,2.5,4.5
		c0,0.5-0.2,0.8-0.6,0.8s-0.6-0.3-0.7-0.8c-0.1-1.8-0.9-3-2.5-3.8c-0.2-0.1-0.4-0.1-0.6,0c-0.9,0.3-1.7,0.2-2.6,0
		c-0.2-0.1-0.4,0-0.6,0c-1.5,0.8-2.4,2-2.5,3.7c0,0.1,0,0.2,0,0.3c-0.1,0.4-0.3,0.6-0.7,0.6c-0.4,0-0.6-0.3-0.6-0.7
		c0-1.3,0.4-2.5,1.2-3.5c0.5-0.5,1-1,1.5-1.4c-0.2-0.4-0.5-0.8-0.8-1.3c-0.1-0.1-0.2-0.1-0.3-0.2c-0.6-0.1-1.2-0.2-1.9-0.2
		c-0.2,0-0.4,0-0.5,0.1c-1.5,0.8-2.3,2-2.5,3.7c0,0.1,0,0.2,0,0.3c0,0.4-0.3,0.7-0.7,0.7s-0.6-0.3-0.6-0.7c0-0.5,0.1-1.1,0.3-1.6
		c0.4-1.3,1.2-2.3,2.3-3C14.4,18.5,14.5,18.5,14.7,18.3C14.6,18.4,14.6,18.4,14.7,18.3z M22,20.8c1.5,0,2.7-1.2,2.7-2.7
		s-1.2-2.7-2.7-2.7s-2.7,1.2-2.7,2.7C19.3,19.6,20.5,20.8,22,20.8z M20,14.6c-0.4-1.3-1.9-2.1-3.3-1.7c-1.4,0.4-2.2,1.9-1.9,3.3
		c0.4,1.4,1.8,2.3,3.1,1.9C18,16.6,18.7,15.4,20,14.6z M26,18.2c1.5,0.3,2.9-0.7,3.1-2.2c0.3-1.4-0.7-2.8-2.1-3.1s-2.8,0.5-3.1,1.8
		C25.3,15.5,26,16.7,26,18.2z"/>
	<path class="st0" d="M22,31.2c1.7,0,3.4,0,5.1,0c0.6,0,0.8,0.2,0.8,0.6s-0.3,0.6-0.8,0.6c-3.5,0-6.9,0-10.4,0c-0.7,0-1-0.5-0.8-0.9
		c0.2-0.3,0.4-0.4,0.7-0.4C18.5,31.2,20.3,31.2,22,31.2z"/>
	<path class="st0" d="M26.4,29.9c-0.3,0-0.6,0-0.9,0c-0.4,0-0.6-0.3-0.6-0.6c0-0.3,0.2-0.6,0.6-0.6c0.7,0,1.3,0,2,0
		c0.4,0,0.6,0.3,0.6,0.6c0,0.4-0.2,0.6-0.6,0.6C27.1,30,26.7,29.9,26.4,29.9z"/>
	<path class="st0" d="M19.5,29.3c0,0.4-0.3,0.6-0.7,0.6c-0.4,0-0.6-0.3-0.6-0.6c0-0.4,0.3-0.6,0.6-0.6
		C19.2,28.7,19.5,28.9,19.5,29.3z"/>
	<path class="st0" d="M21.1,28.7c0.3,0,0.6,0.3,0.6,0.6c0,0.4-0.3,0.7-0.7,0.6c-0.4,0-0.6-0.3-0.6-0.7
		C20.5,28.9,20.7,28.7,21.1,28.7z"/>
	<path class="st0" d="M16.6,29.9c-0.4,0-0.6-0.3-0.6-0.6c0-0.4,0.3-0.7,0.6-0.7c0.3,0,0.6,0.3,0.6,0.6C17.3,29.6,17,29.9,16.6,29.9z
		"/>
</g>
</svg>
