<?xml version="1.0" encoding="utf-8"?>
<!-- Generator: Adobe Illustrator 25.2.3, SVG Export Plug-In . SVG Version: 6.00 Build 0)  -->
<svg version="1.1" id="Capa_1" xmlns="http://www.w3.org/2000/svg" xmlns:xlink="http://www.w3.org/1999/xlink" x="0px" y="0px"
	 viewBox="0 0 44 44" style="enable-background:new 0 0 44 44;" xml:space="preserve">
<style type="text/css">
	.st0{fill:#FFFFFF;}
</style>
<g>
	<path class="st0" d="M21.6,0c0.3,0,0.6,0,0.9,0c1.1,0.2,2,0.8,2.8,1.7c0.7,0.7,1.4,1.4,2.1,2.2c1,1,2.2,1.5,3.7,1.5
		c1.4,0,2.9,0,4.3,0.1C37,5.5,38.5,7,38.5,8.6c0.1,1.4,0.1,2.8,0.1,4.3c0,1.5,0.5,2.8,1.6,3.8c0.7,0.7,1.4,1.4,2.1,2.1
		c0.8,0.8,1.5,1.6,1.7,2.8c0,0.3,0,0.6,0,0.9c-0.2,1.2-0.9,2-1.7,2.8c-0.7,0.7-1.4,1.4-2.1,2.1c-1,1-1.5,2.3-1.5,3.7
		c0,1.4,0,2.9-0.1,4.3c-0.1,1.6-1.6,3.1-3.2,3.2c-1.4,0.1-2.8,0.1-4.2,0.1c-1.5,0-2.8,0.5-3.8,1.6c-0.7,0.7-1.4,1.4-2.1,2.1
		c-0.8,0.8-1.6,1.5-2.8,1.7c-0.3,0-0.6,0-0.9,0c-1.1-0.2-2-0.8-2.8-1.7c-0.7-0.7-1.4-1.4-2.1-2.2c-1-1-2.2-1.5-3.7-1.5
		c-1.5,0-2.9,0-4.4-0.1C7,38.5,5.5,37,5.5,35.4c-0.1-1.4,0-2.9-0.1-4.3c0-1.4-0.5-2.7-1.5-3.7c-0.9-0.9-1.8-1.8-2.7-2.7
		c-1.6-1.6-1.6-3.8,0-5.4c0.9-0.9,1.8-1.8,2.6-2.6c1-1,1.6-2.3,1.6-3.8c0-1.4,0-2.8,0.1-4.2C5.5,7,7,5.5,8.6,5.4
		c1.4-0.1,2.8-0.1,4.2-0.1c1.5,0,2.8-0.5,3.8-1.6c0.7-0.7,1.4-1.4,2.1-2.1C19.6,0.8,20.4,0.2,21.6,0z M19.1,25.1
		c-1.8-1.9-3.7-3.7-5.5-5.5c-0.8,0.8-1.7,1.7-2.5,2.5c2.7,2.7,5.4,5.4,8,8c4.6-4.6,9.2-9.2,13.7-13.8c-0.8-0.8-1.7-1.7-2.6-2.6
		C26.6,17.5,22.9,21.3,19.1,25.1z"/>
</g>
</svg>
